<mxfile host="app.diagrams.net" agent="Mozilla/5.0 (Windows NT 10.0; Win64; x64) AppleWebKit/537.36 (KHTML, like Gecko) Chrome/131.0.0.0 Safari/537.36" version="26.0.4">
  <diagram id="C5RBs43oDa-KdzZeNtuy" name="Page-1">
    <mxGraphModel dx="6681" dy="4806" grid="1" gridSize="10" guides="1" tooltips="1" connect="1" arrows="1" fold="1" page="1" pageScale="1" pageWidth="827" pageHeight="1169" math="0" shadow="0">
      <root>
        <mxCell id="WIyWlLk6GJQsqaUBKTNV-0" />
        <mxCell id="WIyWlLk6GJQsqaUBKTNV-1" parent="WIyWlLk6GJQsqaUBKTNV-0" />
        <mxCell id="1n1pHUthxInLevBbwaHJ-0" value="Characters" style="swimlane;fontStyle=1;align=center;verticalAlign=top;childLayout=stackLayout;horizontal=1;startSize=26;horizontalStack=0;resizeParent=1;resizeParentMax=0;resizeLast=0;collapsible=1;marginBottom=0;whiteSpace=wrap;html=1;" vertex="1" parent="WIyWlLk6GJQsqaUBKTNV-1">
          <mxGeometry x="-410" y="-670" width="200" height="86" as="geometry" />
        </mxCell>
        <mxCell id="1n1pHUthxInLevBbwaHJ-1" value="- name: string" style="text;strokeColor=none;fillColor=none;align=left;verticalAlign=top;spacingLeft=4;spacingRight=4;overflow=hidden;rotatable=0;points=[[0,0.5],[1,0.5]];portConstraint=eastwest;whiteSpace=wrap;html=1;" vertex="1" parent="1n1pHUthxInLevBbwaHJ-0">
          <mxGeometry y="26" width="200" height="26" as="geometry" />
        </mxCell>
        <mxCell id="1n1pHUthxInLevBbwaHJ-2" value="" style="line;strokeWidth=1;fillColor=none;align=left;verticalAlign=middle;spacingTop=-1;spacingLeft=3;spacingRight=3;rotatable=0;labelPosition=right;points=[];portConstraint=eastwest;strokeColor=inherit;" vertex="1" parent="1n1pHUthxInLevBbwaHJ-0">
          <mxGeometry y="52" width="200" height="8" as="geometry" />
        </mxCell>
        <mxCell id="1n1pHUthxInLevBbwaHJ-3" value="+ implementAnimation(): void" style="text;strokeColor=none;fillColor=none;align=left;verticalAlign=top;spacingLeft=4;spacingRight=4;overflow=hidden;rotatable=0;points=[[0,0.5],[1,0.5]];portConstraint=eastwest;whiteSpace=wrap;html=1;" vertex="1" parent="1n1pHUthxInLevBbwaHJ-0">
          <mxGeometry y="60" width="200" height="26" as="geometry" />
        </mxCell>
        <mxCell id="1n1pHUthxInLevBbwaHJ-17" value="ObstacleBoost" style="swimlane;fontStyle=1;align=center;verticalAlign=top;childLayout=stackLayout;horizontal=1;startSize=26;horizontalStack=0;resizeParent=1;resizeParentMax=0;resizeLast=0;collapsible=1;marginBottom=0;whiteSpace=wrap;html=1;" vertex="1" parent="WIyWlLk6GJQsqaUBKTNV-1">
          <mxGeometry x="-1050" y="-162" width="200" height="112" as="geometry" />
        </mxCell>
        <mxCell id="1n1pHUthxInLevBbwaHJ-18" value="- cooldownTime: float" style="text;strokeColor=none;fillColor=none;align=left;verticalAlign=top;spacingLeft=4;spacingRight=4;overflow=hidden;rotatable=0;points=[[0,0.5],[1,0.5]];portConstraint=eastwest;whiteSpace=wrap;html=1;" vertex="1" parent="1n1pHUthxInLevBbwaHJ-17">
          <mxGeometry y="26" width="200" height="26" as="geometry" />
        </mxCell>
        <mxCell id="1n1pHUthxInLevBbwaHJ-19" value="- lastcollisionTime: float" style="text;strokeColor=none;fillColor=none;align=left;verticalAlign=top;spacingLeft=4;spacingRight=4;overflow=hidden;rotatable=0;points=[[0,0.5],[1,0.5]];portConstraint=eastwest;whiteSpace=wrap;html=1;" vertex="1" parent="1n1pHUthxInLevBbwaHJ-17">
          <mxGeometry y="52" width="200" height="26" as="geometry" />
        </mxCell>
        <mxCell id="1n1pHUthxInLevBbwaHJ-21" value="" style="line;strokeWidth=1;fillColor=none;align=left;verticalAlign=middle;spacingTop=-1;spacingLeft=3;spacingRight=3;rotatable=0;labelPosition=right;points=[];portConstraint=eastwest;strokeColor=inherit;" vertex="1" parent="1n1pHUthxInLevBbwaHJ-17">
          <mxGeometry y="78" width="200" height="8" as="geometry" />
        </mxCell>
        <mxCell id="1n1pHUthxInLevBbwaHJ-22" value="+ OnTriggerEnter(Collider other): void" style="text;strokeColor=none;fillColor=none;align=left;verticalAlign=top;spacingLeft=4;spacingRight=4;overflow=hidden;rotatable=0;points=[[0,0.5],[1,0.5]];portConstraint=eastwest;whiteSpace=wrap;html=1;" vertex="1" parent="1n1pHUthxInLevBbwaHJ-17">
          <mxGeometry y="86" width="200" height="26" as="geometry" />
        </mxCell>
        <mxCell id="1n1pHUthxInLevBbwaHJ-23" value="FinalScene" style="swimlane;fontStyle=1;align=center;verticalAlign=top;childLayout=stackLayout;horizontal=1;startSize=26;horizontalStack=0;resizeParent=1;resizeParentMax=0;resizeLast=0;collapsible=1;marginBottom=0;whiteSpace=wrap;html=1;" vertex="1" parent="WIyWlLk6GJQsqaUBKTNV-1">
          <mxGeometry x="450" y="-1320" width="200" height="130" as="geometry" />
        </mxCell>
        <mxCell id="1n1pHUthxInLevBbwaHJ-24" value="- finalPositiion: int" style="text;strokeColor=none;fillColor=none;align=left;verticalAlign=top;spacingLeft=4;spacingRight=4;overflow=hidden;rotatable=0;points=[[0,0.5],[1,0.5]];portConstraint=eastwest;whiteSpace=wrap;html=1;" vertex="1" parent="1n1pHUthxInLevBbwaHJ-23">
          <mxGeometry y="26" width="200" height="26" as="geometry" />
        </mxCell>
        <mxCell id="1n1pHUthxInLevBbwaHJ-25" value="" style="line;strokeWidth=1;fillColor=none;align=left;verticalAlign=middle;spacingTop=-1;spacingLeft=3;spacingRight=3;rotatable=0;labelPosition=right;points=[];portConstraint=eastwest;strokeColor=inherit;" vertex="1" parent="1n1pHUthxInLevBbwaHJ-23">
          <mxGeometry y="52" width="200" height="8" as="geometry" />
        </mxCell>
        <mxCell id="1n1pHUthxInLevBbwaHJ-26" value="+ implementAnimation(): void" style="text;strokeColor=none;fillColor=none;align=left;verticalAlign=top;spacingLeft=4;spacingRight=4;overflow=hidden;rotatable=0;points=[[0,0.5],[1,0.5]];portConstraint=eastwest;whiteSpace=wrap;html=1;" vertex="1" parent="1n1pHUthxInLevBbwaHJ-23">
          <mxGeometry y="60" width="200" height="26" as="geometry" />
        </mxCell>
        <mxCell id="1n1pHUthxInLevBbwaHJ-27" value="+ LoadWinningScene(): void" style="text;strokeColor=none;fillColor=none;align=left;verticalAlign=top;spacingLeft=4;spacingRight=4;overflow=hidden;rotatable=0;points=[[0,0.5],[1,0.5]];portConstraint=eastwest;whiteSpace=wrap;html=1;" vertex="1" parent="1n1pHUthxInLevBbwaHJ-23">
          <mxGeometry y="86" width="200" height="22" as="geometry" />
        </mxCell>
        <mxCell id="1n1pHUthxInLevBbwaHJ-28" value="+ LoadLoosingScene(): void" style="text;strokeColor=none;fillColor=none;align=left;verticalAlign=top;spacingLeft=4;spacingRight=4;overflow=hidden;rotatable=0;points=[[0,0.5],[1,0.5]];portConstraint=eastwest;whiteSpace=wrap;html=1;" vertex="1" parent="1n1pHUthxInLevBbwaHJ-23">
          <mxGeometry y="108" width="200" height="22" as="geometry" />
        </mxCell>
        <mxCell id="1n1pHUthxInLevBbwaHJ-29" value="ObstacleSlider&lt;div&gt;&lt;br&gt;&lt;/div&gt;" style="swimlane;fontStyle=1;align=center;verticalAlign=top;childLayout=stackLayout;horizontal=1;startSize=26;horizontalStack=0;resizeParent=1;resizeParentMax=0;resizeLast=0;collapsible=1;marginBottom=0;whiteSpace=wrap;html=1;" vertex="1" parent="WIyWlLk6GJQsqaUBKTNV-1">
          <mxGeometry x="-543" y="-162" width="200" height="112" as="geometry" />
        </mxCell>
        <mxCell id="1n1pHUthxInLevBbwaHJ-30" value="- cooldownTime: float" style="text;strokeColor=none;fillColor=none;align=left;verticalAlign=top;spacingLeft=4;spacingRight=4;overflow=hidden;rotatable=0;points=[[0,0.5],[1,0.5]];portConstraint=eastwest;whiteSpace=wrap;html=1;" vertex="1" parent="1n1pHUthxInLevBbwaHJ-29">
          <mxGeometry y="26" width="200" height="26" as="geometry" />
        </mxCell>
        <mxCell id="1n1pHUthxInLevBbwaHJ-31" value="- velocity: float" style="text;strokeColor=none;fillColor=none;align=left;verticalAlign=top;spacingLeft=4;spacingRight=4;overflow=hidden;rotatable=0;points=[[0,0.5],[1,0.5]];portConstraint=eastwest;whiteSpace=wrap;html=1;" vertex="1" parent="1n1pHUthxInLevBbwaHJ-29">
          <mxGeometry y="52" width="200" height="26" as="geometry" />
        </mxCell>
        <mxCell id="1n1pHUthxInLevBbwaHJ-35" value="" style="line;strokeWidth=1;fillColor=none;align=left;verticalAlign=middle;spacingTop=-1;spacingLeft=3;spacingRight=3;rotatable=0;labelPosition=right;points=[];portConstraint=eastwest;strokeColor=inherit;" vertex="1" parent="1n1pHUthxInLevBbwaHJ-29">
          <mxGeometry y="78" width="200" height="8" as="geometry" />
        </mxCell>
        <mxCell id="1n1pHUthxInLevBbwaHJ-36" value="+ OnTriggerEnter(Collider other): void" style="text;strokeColor=none;fillColor=none;align=left;verticalAlign=top;spacingLeft=4;spacingRight=4;overflow=hidden;rotatable=0;points=[[0,0.5],[1,0.5]];portConstraint=eastwest;whiteSpace=wrap;html=1;" vertex="1" parent="1n1pHUthxInLevBbwaHJ-29">
          <mxGeometry y="86" width="200" height="26" as="geometry" />
        </mxCell>
        <mxCell id="1n1pHUthxInLevBbwaHJ-37" value="VehicleController" style="swimlane;fontStyle=1;align=center;verticalAlign=top;childLayout=stackLayout;horizontal=1;startSize=26;horizontalStack=0;resizeParent=1;resizeParentMax=0;resizeLast=0;collapsible=1;marginBottom=0;whiteSpace=wrap;html=1;" vertex="1" parent="WIyWlLk6GJQsqaUBKTNV-1">
          <mxGeometry x="140" y="-660" width="290" height="684" as="geometry" />
        </mxCell>
        <mxCell id="1n1pHUthxInLevBbwaHJ-38" value="-&amp;nbsp;horizontalInput: float" style="text;strokeColor=none;fillColor=none;align=left;verticalAlign=top;spacingLeft=4;spacingRight=4;overflow=hidden;rotatable=0;points=[[0,0.5],[1,0.5]];portConstraint=eastwest;whiteSpace=wrap;html=1;" vertex="1" parent="1n1pHUthxInLevBbwaHJ-37">
          <mxGeometry y="26" width="290" height="26" as="geometry" />
        </mxCell>
        <mxCell id="1n1pHUthxInLevBbwaHJ-39" value="-&amp;nbsp;verticalInput: float" style="text;strokeColor=none;fillColor=none;align=left;verticalAlign=top;spacingLeft=4;spacingRight=4;overflow=hidden;rotatable=0;points=[[0,0.5],[1,0.5]];portConstraint=eastwest;whiteSpace=wrap;html=1;" vertex="1" parent="1n1pHUthxInLevBbwaHJ-37">
          <mxGeometry y="52" width="290" height="26" as="geometry" />
        </mxCell>
        <mxCell id="1n1pHUthxInLevBbwaHJ-40" value="- currentSteerAngle: float" style="text;strokeColor=none;fillColor=none;align=left;verticalAlign=top;spacingLeft=4;spacingRight=4;overflow=hidden;rotatable=0;points=[[0,0.5],[1,0.5]];portConstraint=eastwest;whiteSpace=wrap;html=1;" vertex="1" parent="1n1pHUthxInLevBbwaHJ-37">
          <mxGeometry y="78" width="290" height="26" as="geometry" />
        </mxCell>
        <mxCell id="1n1pHUthxInLevBbwaHJ-41" value="- currentBrakeForce: float" style="text;strokeColor=none;fillColor=none;align=left;verticalAlign=top;spacingLeft=4;spacingRight=4;overflow=hidden;rotatable=0;points=[[0,0.5],[1,0.5]];portConstraint=eastwest;whiteSpace=wrap;html=1;" vertex="1" parent="1n1pHUthxInLevBbwaHJ-37">
          <mxGeometry y="104" width="290" height="26" as="geometry" />
        </mxCell>
        <mxCell id="1n1pHUthxInLevBbwaHJ-318" value="-&amp;nbsp;isBreaking: bool" style="text;strokeColor=none;fillColor=none;align=left;verticalAlign=top;spacingLeft=4;spacingRight=4;overflow=hidden;rotatable=0;points=[[0,0.5],[1,0.5]];portConstraint=eastwest;whiteSpace=wrap;html=1;" vertex="1" parent="1n1pHUthxInLevBbwaHJ-37">
          <mxGeometry y="130" width="290" height="26" as="geometry" />
        </mxCell>
        <mxCell id="1n1pHUthxInLevBbwaHJ-319" value="+ motorForce: float" style="text;strokeColor=none;fillColor=none;align=left;verticalAlign=top;spacingLeft=4;spacingRight=4;overflow=hidden;rotatable=0;points=[[0,0.5],[1,0.5]];portConstraint=eastwest;whiteSpace=wrap;html=1;" vertex="1" parent="1n1pHUthxInLevBbwaHJ-37">
          <mxGeometry y="156" width="290" height="26" as="geometry" />
        </mxCell>
        <mxCell id="1n1pHUthxInLevBbwaHJ-320" value="+ brakeForce: float" style="text;strokeColor=none;fillColor=none;align=left;verticalAlign=top;spacingLeft=4;spacingRight=4;overflow=hidden;rotatable=0;points=[[0,0.5],[1,0.5]];portConstraint=eastwest;whiteSpace=wrap;html=1;" vertex="1" parent="1n1pHUthxInLevBbwaHJ-37">
          <mxGeometry y="182" width="290" height="26" as="geometry" />
        </mxCell>
        <mxCell id="1n1pHUthxInLevBbwaHJ-321" value="+ maxSteerAngle: float" style="text;strokeColor=none;fillColor=none;align=left;verticalAlign=top;spacingLeft=4;spacingRight=4;overflow=hidden;rotatable=0;points=[[0,0.5],[1,0.5]];portConstraint=eastwest;whiteSpace=wrap;html=1;" vertex="1" parent="1n1pHUthxInLevBbwaHJ-37">
          <mxGeometry y="208" width="290" height="26" as="geometry" />
        </mxCell>
        <mxCell id="1n1pHUthxInLevBbwaHJ-322" value="+&amp;nbsp;frontLeftWheelCollider: WheelCollider" style="text;strokeColor=none;fillColor=none;align=left;verticalAlign=top;spacingLeft=4;spacingRight=4;overflow=hidden;rotatable=0;points=[[0,0.5],[1,0.5]];portConstraint=eastwest;whiteSpace=wrap;html=1;" vertex="1" parent="1n1pHUthxInLevBbwaHJ-37">
          <mxGeometry y="234" width="290" height="26" as="geometry" />
        </mxCell>
        <mxCell id="1n1pHUthxInLevBbwaHJ-323" value="+ rearLeftWheelCollider: WheelCollider" style="text;strokeColor=none;fillColor=none;align=left;verticalAlign=top;spacingLeft=4;spacingRight=4;overflow=hidden;rotatable=0;points=[[0,0.5],[1,0.5]];portConstraint=eastwest;whiteSpace=wrap;html=1;" vertex="1" parent="1n1pHUthxInLevBbwaHJ-37">
          <mxGeometry y="260" width="290" height="26" as="geometry" />
        </mxCell>
        <mxCell id="1n1pHUthxInLevBbwaHJ-324" value="+&amp;nbsp;frontLeftWheelTransform: Transform" style="text;strokeColor=none;fillColor=none;align=left;verticalAlign=top;spacingLeft=4;spacingRight=4;overflow=hidden;rotatable=0;points=[[0,0.5],[1,0.5]];portConstraint=eastwest;whiteSpace=wrap;html=1;" vertex="1" parent="1n1pHUthxInLevBbwaHJ-37">
          <mxGeometry y="286" width="290" height="26" as="geometry" />
        </mxCell>
        <mxCell id="1n1pHUthxInLevBbwaHJ-325" value="+&amp;nbsp;rearLeftWheelTransform Transform" style="text;strokeColor=none;fillColor=none;align=left;verticalAlign=top;spacingLeft=4;spacingRight=4;overflow=hidden;rotatable=0;points=[[0,0.5],[1,0.5]];portConstraint=eastwest;whiteSpace=wrap;html=1;" vertex="1" parent="1n1pHUthxInLevBbwaHJ-37">
          <mxGeometry y="312" width="290" height="26" as="geometry" />
        </mxCell>
        <mxCell id="1n1pHUthxInLevBbwaHJ-326" value="- uiManager: RaceUIManager" style="text;strokeColor=none;fillColor=none;align=left;verticalAlign=top;spacingLeft=4;spacingRight=4;overflow=hidden;rotatable=0;points=[[0,0.5],[1,0.5]];portConstraint=eastwest;whiteSpace=wrap;html=1;" vertex="1" parent="1n1pHUthxInLevBbwaHJ-37">
          <mxGeometry y="338" width="290" height="26" as="geometry" />
        </mxCell>
        <mxCell id="1n1pHUthxInLevBbwaHJ-327" value="- rb: Rigidbody" style="text;strokeColor=none;fillColor=none;align=left;verticalAlign=top;spacingLeft=4;spacingRight=4;overflow=hidden;rotatable=0;points=[[0,0.5],[1,0.5]];portConstraint=eastwest;whiteSpace=wrap;html=1;" vertex="1" parent="1n1pHUthxInLevBbwaHJ-37">
          <mxGeometry y="364" width="290" height="26" as="geometry" />
        </mxCell>
        <mxCell id="1n1pHUthxInLevBbwaHJ-42" value="" style="line;strokeWidth=1;fillColor=none;align=left;verticalAlign=middle;spacingTop=-1;spacingLeft=3;spacingRight=3;rotatable=0;labelPosition=right;points=[];portConstraint=eastwest;strokeColor=inherit;" vertex="1" parent="1n1pHUthxInLevBbwaHJ-37">
          <mxGeometry y="390" width="290" height="8" as="geometry" />
        </mxCell>
        <mxCell id="1n1pHUthxInLevBbwaHJ-43" value="- Start(): void" style="text;strokeColor=none;fillColor=none;align=left;verticalAlign=top;spacingLeft=4;spacingRight=4;overflow=hidden;rotatable=0;points=[[0,0.5],[1,0.5]];portConstraint=eastwest;whiteSpace=wrap;html=1;" vertex="1" parent="1n1pHUthxInLevBbwaHJ-37">
          <mxGeometry y="398" width="290" height="26" as="geometry" />
        </mxCell>
        <mxCell id="1n1pHUthxInLevBbwaHJ-328" value="- FixedUpdate(): void" style="text;strokeColor=none;fillColor=none;align=left;verticalAlign=top;spacingLeft=4;spacingRight=4;overflow=hidden;rotatable=0;points=[[0,0.5],[1,0.5]];portConstraint=eastwest;whiteSpace=wrap;html=1;" vertex="1" parent="1n1pHUthxInLevBbwaHJ-37">
          <mxGeometry y="424" width="290" height="26" as="geometry" />
        </mxCell>
        <mxCell id="1n1pHUthxInLevBbwaHJ-329" value="- GetInput(): void" style="text;strokeColor=none;fillColor=none;align=left;verticalAlign=top;spacingLeft=4;spacingRight=4;overflow=hidden;rotatable=0;points=[[0,0.5],[1,0.5]];portConstraint=eastwest;whiteSpace=wrap;html=1;" vertex="1" parent="1n1pHUthxInLevBbwaHJ-37">
          <mxGeometry y="450" width="290" height="26" as="geometry" />
        </mxCell>
        <mxCell id="1n1pHUthxInLevBbwaHJ-330" value="- HandleMotor(): void" style="text;strokeColor=none;fillColor=none;align=left;verticalAlign=top;spacingLeft=4;spacingRight=4;overflow=hidden;rotatable=0;points=[[0,0.5],[1,0.5]];portConstraint=eastwest;whiteSpace=wrap;html=1;" vertex="1" parent="1n1pHUthxInLevBbwaHJ-37">
          <mxGeometry y="476" width="290" height="26" as="geometry" />
        </mxCell>
        <mxCell id="1n1pHUthxInLevBbwaHJ-331" value="- ApplyBreaking(): void" style="text;strokeColor=none;fillColor=none;align=left;verticalAlign=top;spacingLeft=4;spacingRight=4;overflow=hidden;rotatable=0;points=[[0,0.5],[1,0.5]];portConstraint=eastwest;whiteSpace=wrap;html=1;" vertex="1" parent="1n1pHUthxInLevBbwaHJ-37">
          <mxGeometry y="502" width="290" height="26" as="geometry" />
        </mxCell>
        <mxCell id="1n1pHUthxInLevBbwaHJ-332" value="- HandleSteering(): void" style="text;strokeColor=none;fillColor=none;align=left;verticalAlign=top;spacingLeft=4;spacingRight=4;overflow=hidden;rotatable=0;points=[[0,0.5],[1,0.5]];portConstraint=eastwest;whiteSpace=wrap;html=1;" vertex="1" parent="1n1pHUthxInLevBbwaHJ-37">
          <mxGeometry y="528" width="290" height="26" as="geometry" />
        </mxCell>
        <mxCell id="1n1pHUthxInLevBbwaHJ-333" value="- UpdateWheels(): void" style="text;strokeColor=none;fillColor=none;align=left;verticalAlign=top;spacingLeft=4;spacingRight=4;overflow=hidden;rotatable=0;points=[[0,0.5],[1,0.5]];portConstraint=eastwest;whiteSpace=wrap;html=1;" vertex="1" parent="1n1pHUthxInLevBbwaHJ-37">
          <mxGeometry y="554" width="290" height="26" as="geometry" />
        </mxCell>
        <mxCell id="1n1pHUthxInLevBbwaHJ-334" value="- UpdateSingleWheel(): void" style="text;strokeColor=none;fillColor=none;align=left;verticalAlign=top;spacingLeft=4;spacingRight=4;overflow=hidden;rotatable=0;points=[[0,0.5],[1,0.5]];portConstraint=eastwest;whiteSpace=wrap;html=1;" vertex="1" parent="1n1pHUthxInLevBbwaHJ-37">
          <mxGeometry y="580" width="290" height="26" as="geometry" />
        </mxCell>
        <mxCell id="1n1pHUthxInLevBbwaHJ-335" value="- AdjustWheelFriction(): void" style="text;strokeColor=none;fillColor=none;align=left;verticalAlign=top;spacingLeft=4;spacingRight=4;overflow=hidden;rotatable=0;points=[[0,0.5],[1,0.5]];portConstraint=eastwest;whiteSpace=wrap;html=1;" vertex="1" parent="1n1pHUthxInLevBbwaHJ-37">
          <mxGeometry y="606" width="290" height="26" as="geometry" />
        </mxCell>
        <mxCell id="1n1pHUthxInLevBbwaHJ-336" value="- ModifySpeed(): void" style="text;strokeColor=none;fillColor=none;align=left;verticalAlign=top;spacingLeft=4;spacingRight=4;overflow=hidden;rotatable=0;points=[[0,0.5],[1,0.5]];portConstraint=eastwest;whiteSpace=wrap;html=1;" vertex="1" parent="1n1pHUthxInLevBbwaHJ-37">
          <mxGeometry y="632" width="290" height="26" as="geometry" />
        </mxCell>
        <mxCell id="1n1pHUthxInLevBbwaHJ-337" value="- TemporarySpeedChange(): void" style="text;strokeColor=none;fillColor=none;align=left;verticalAlign=top;spacingLeft=4;spacingRight=4;overflow=hidden;rotatable=0;points=[[0,0.5],[1,0.5]];portConstraint=eastwest;whiteSpace=wrap;html=1;" vertex="1" parent="1n1pHUthxInLevBbwaHJ-37">
          <mxGeometry y="658" width="290" height="26" as="geometry" />
        </mxCell>
        <mxCell id="1n1pHUthxInLevBbwaHJ-66" value="ObstacleScene" style="swimlane;fontStyle=1;align=center;verticalAlign=top;childLayout=stackLayout;horizontal=1;startSize=26;horizontalStack=0;resizeParent=1;resizeParentMax=0;resizeLast=0;collapsible=1;marginBottom=0;whiteSpace=wrap;html=1;" vertex="1" parent="WIyWlLk6GJQsqaUBKTNV-1">
          <mxGeometry x="-809" y="-162" width="200" height="112" as="geometry" />
        </mxCell>
        <mxCell id="1n1pHUthxInLevBbwaHJ-67" value="- cooldownTime: float" style="text;strokeColor=none;fillColor=none;align=left;verticalAlign=top;spacingLeft=4;spacingRight=4;overflow=hidden;rotatable=0;points=[[0,0.5],[1,0.5]];portConstraint=eastwest;whiteSpace=wrap;html=1;" vertex="1" parent="1n1pHUthxInLevBbwaHJ-66">
          <mxGeometry y="26" width="200" height="26" as="geometry" />
        </mxCell>
        <mxCell id="1n1pHUthxInLevBbwaHJ-315" value="- lastcollisionTime: float" style="text;strokeColor=none;fillColor=none;align=left;verticalAlign=top;spacingLeft=4;spacingRight=4;overflow=hidden;rotatable=0;points=[[0,0.5],[1,0.5]];portConstraint=eastwest;whiteSpace=wrap;html=1;" vertex="1" parent="1n1pHUthxInLevBbwaHJ-66">
          <mxGeometry y="52" width="200" height="26" as="geometry" />
        </mxCell>
        <mxCell id="1n1pHUthxInLevBbwaHJ-68" value="" style="line;strokeWidth=1;fillColor=none;align=left;verticalAlign=middle;spacingTop=-1;spacingLeft=3;spacingRight=3;rotatable=0;labelPosition=right;points=[];portConstraint=eastwest;strokeColor=inherit;" vertex="1" parent="1n1pHUthxInLevBbwaHJ-66">
          <mxGeometry y="78" width="200" height="8" as="geometry" />
        </mxCell>
        <mxCell id="1n1pHUthxInLevBbwaHJ-69" value="+ OnTriggerEnter(Collider other): void" style="text;strokeColor=none;fillColor=none;align=left;verticalAlign=top;spacingLeft=4;spacingRight=4;overflow=hidden;rotatable=0;points=[[0,0.5],[1,0.5]];portConstraint=eastwest;whiteSpace=wrap;html=1;" vertex="1" parent="1n1pHUthxInLevBbwaHJ-66">
          <mxGeometry y="86" width="200" height="26" as="geometry" />
        </mxCell>
        <mxCell id="1n1pHUthxInLevBbwaHJ-70" value="" style="rounded=0;whiteSpace=wrap;html=1;fillColor=none;" vertex="1" parent="WIyWlLk6GJQsqaUBKTNV-1">
          <mxGeometry x="-1180" y="960" width="2770" height="1110" as="geometry" />
        </mxCell>
        <mxCell id="1n1pHUthxInLevBbwaHJ-71" value="" style="rounded=0;whiteSpace=wrap;html=1;fillColor=none;" vertex="1" parent="WIyWlLk6GJQsqaUBKTNV-1">
          <mxGeometry x="-1370" y="1570" width="2180" height="1110" as="geometry" />
        </mxCell>
        <mxCell id="1n1pHUthxInLevBbwaHJ-72" value="" style="rounded=0;whiteSpace=wrap;html=1;fillColor=none;" vertex="1" parent="WIyWlLk6GJQsqaUBKTNV-1">
          <mxGeometry x="-1760" y="790" width="3360" height="1360" as="geometry" />
        </mxCell>
        <mxCell id="1n1pHUthxInLevBbwaHJ-73" value="MiniMap" style="swimlane;fontStyle=1;align=center;verticalAlign=top;childLayout=stackLayout;horizontal=1;startSize=26;horizontalStack=0;resizeParent=1;resizeParentMax=0;resizeLast=0;collapsible=1;marginBottom=0;whiteSpace=wrap;html=1;" vertex="1" parent="WIyWlLk6GJQsqaUBKTNV-1">
          <mxGeometry x="860" y="-1359" width="200" height="190" as="geometry" />
        </mxCell>
        <mxCell id="1n1pHUthxInLevBbwaHJ-74" value="- personFace: UIElement" style="text;strokeColor=none;fillColor=none;align=left;verticalAlign=top;spacingLeft=4;spacingRight=4;overflow=hidden;rotatable=0;points=[[0,0.5],[1,0.5]];portConstraint=eastwest;whiteSpace=wrap;html=1;" vertex="1" parent="1n1pHUthxInLevBbwaHJ-73">
          <mxGeometry y="26" width="200" height="26" as="geometry" />
        </mxCell>
        <mxCell id="1n1pHUthxInLevBbwaHJ-75" value="- circuitLayer: UIElement" style="text;strokeColor=none;fillColor=none;align=left;verticalAlign=top;spacingLeft=4;spacingRight=4;overflow=hidden;rotatable=0;points=[[0,0.5],[1,0.5]];portConstraint=eastwest;whiteSpace=wrap;html=1;" vertex="1" parent="1n1pHUthxInLevBbwaHJ-73">
          <mxGeometry y="52" width="200" height="26" as="geometry" />
        </mxCell>
        <mxCell id="1n1pHUthxInLevBbwaHJ-76" value="- playerPosition: Vector2" style="text;strokeColor=none;fillColor=none;align=left;verticalAlign=top;spacingLeft=4;spacingRight=4;overflow=hidden;rotatable=0;points=[[0,0.5],[1,0.5]];portConstraint=eastwest;whiteSpace=wrap;html=1;" vertex="1" parent="1n1pHUthxInLevBbwaHJ-73">
          <mxGeometry y="78" width="200" height="26" as="geometry" />
        </mxCell>
        <mxCell id="1n1pHUthxInLevBbwaHJ-77" value="- mapImage: UIElement" style="text;strokeColor=none;fillColor=none;align=left;verticalAlign=top;spacingLeft=4;spacingRight=4;overflow=hidden;rotatable=0;points=[[0,0.5],[1,0.5]];portConstraint=eastwest;whiteSpace=wrap;html=1;" vertex="1" parent="1n1pHUthxInLevBbwaHJ-73">
          <mxGeometry y="104" width="200" height="26" as="geometry" />
        </mxCell>
        <mxCell id="1n1pHUthxInLevBbwaHJ-78" value="" style="line;strokeWidth=1;fillColor=none;align=left;verticalAlign=middle;spacingTop=-1;spacingLeft=3;spacingRight=3;rotatable=0;labelPosition=right;points=[];portConstraint=eastwest;strokeColor=inherit;" vertex="1" parent="1n1pHUthxInLevBbwaHJ-73">
          <mxGeometry y="130" width="200" height="8" as="geometry" />
        </mxCell>
        <mxCell id="1n1pHUthxInLevBbwaHJ-79" value="+ Show(): void&lt;div&gt;&lt;br&gt;&lt;/div&gt;" style="text;strokeColor=none;fillColor=none;align=left;verticalAlign=top;spacingLeft=4;spacingRight=4;overflow=hidden;rotatable=0;points=[[0,0.5],[1,0.5]];portConstraint=eastwest;whiteSpace=wrap;html=1;" vertex="1" parent="1n1pHUthxInLevBbwaHJ-73">
          <mxGeometry y="138" width="200" height="26" as="geometry" />
        </mxCell>
        <mxCell id="1n1pHUthxInLevBbwaHJ-80" value="&lt;div&gt;+ UpdatePlayerPositoin(): void&lt;/div&gt;" style="text;strokeColor=none;fillColor=none;align=left;verticalAlign=top;spacingLeft=4;spacingRight=4;overflow=hidden;rotatable=0;points=[[0,0.5],[1,0.5]];portConstraint=eastwest;whiteSpace=wrap;html=1;" vertex="1" parent="1n1pHUthxInLevBbwaHJ-73">
          <mxGeometry y="164" width="200" height="26" as="geometry" />
        </mxCell>
        <mxCell id="1n1pHUthxInLevBbwaHJ-104" value="Rounds" style="swimlane;fontStyle=1;align=center;verticalAlign=top;childLayout=stackLayout;horizontal=1;startSize=26;horizontalStack=0;resizeParent=1;resizeParentMax=0;resizeLast=0;collapsible=1;marginBottom=0;whiteSpace=wrap;html=1;" vertex="1" parent="WIyWlLk6GJQsqaUBKTNV-1">
          <mxGeometry x="-1950" y="-1320" width="200" height="112" as="geometry" />
        </mxCell>
        <mxCell id="1n1pHUthxInLevBbwaHJ-105" value="- raceLaps: int" style="text;strokeColor=none;fillColor=none;align=left;verticalAlign=top;spacingLeft=4;spacingRight=4;overflow=hidden;rotatable=0;points=[[0,0.5],[1,0.5]];portConstraint=eastwest;whiteSpace=wrap;html=1;" vertex="1" parent="1n1pHUthxInLevBbwaHJ-104">
          <mxGeometry y="26" width="200" height="26" as="geometry" />
        </mxCell>
        <mxCell id="1n1pHUthxInLevBbwaHJ-106" value="- lapsCompleted: int" style="text;strokeColor=none;fillColor=none;align=left;verticalAlign=top;spacingLeft=4;spacingRight=4;overflow=hidden;rotatable=0;points=[[0,0.5],[1,0.5]];portConstraint=eastwest;whiteSpace=wrap;html=1;" vertex="1" parent="1n1pHUthxInLevBbwaHJ-104">
          <mxGeometry y="52" width="200" height="26" as="geometry" />
        </mxCell>
        <mxCell id="1n1pHUthxInLevBbwaHJ-107" value="" style="line;strokeWidth=1;fillColor=none;align=left;verticalAlign=middle;spacingTop=-1;spacingLeft=3;spacingRight=3;rotatable=0;labelPosition=right;points=[];portConstraint=eastwest;strokeColor=inherit;" vertex="1" parent="1n1pHUthxInLevBbwaHJ-104">
          <mxGeometry y="78" width="200" height="8" as="geometry" />
        </mxCell>
        <mxCell id="1n1pHUthxInLevBbwaHJ-108" value="+ LapCompletion(): bool" style="text;strokeColor=none;fillColor=none;align=left;verticalAlign=top;spacingLeft=4;spacingRight=4;overflow=hidden;rotatable=0;points=[[0,0.5],[1,0.5]];portConstraint=eastwest;whiteSpace=wrap;html=1;" vertex="1" parent="1n1pHUthxInLevBbwaHJ-104">
          <mxGeometry y="86" width="200" height="26" as="geometry" />
        </mxCell>
        <mxCell id="1n1pHUthxInLevBbwaHJ-109" value="SceneManager" style="swimlane;fontStyle=1;align=center;verticalAlign=top;childLayout=stackLayout;horizontal=1;startSize=26;horizontalStack=0;resizeParent=1;resizeParentMax=0;resizeLast=0;collapsible=1;marginBottom=0;whiteSpace=wrap;html=1;" vertex="1" parent="WIyWlLk6GJQsqaUBKTNV-1">
          <mxGeometry x="135" y="-1648" width="296" height="198" as="geometry" />
        </mxCell>
        <mxCell id="1n1pHUthxInLevBbwaHJ-110" value="- finalPosition: int" style="text;strokeColor=none;fillColor=none;align=left;verticalAlign=top;spacingLeft=4;spacingRight=4;overflow=hidden;rotatable=0;points=[[0,0.5],[1,0.5]];portConstraint=eastwest;whiteSpace=wrap;html=1;" vertex="1" parent="1n1pHUthxInLevBbwaHJ-109">
          <mxGeometry y="26" width="296" height="24" as="geometry" />
        </mxCell>
        <mxCell id="1n1pHUthxInLevBbwaHJ-111" value="" style="line;strokeWidth=1;fillColor=none;align=left;verticalAlign=middle;spacingTop=-1;spacingLeft=3;spacingRight=3;rotatable=0;labelPosition=right;points=[];portConstraint=eastwest;strokeColor=inherit;" vertex="1" parent="1n1pHUthxInLevBbwaHJ-109">
          <mxGeometry y="50" width="296" height="8" as="geometry" />
        </mxCell>
        <mxCell id="1n1pHUthxInLevBbwaHJ-112" value="+ LoadWinningScene(): void" style="text;strokeColor=none;fillColor=none;align=left;verticalAlign=top;spacingLeft=4;spacingRight=4;overflow=hidden;rotatable=0;points=[[0,0.5],[1,0.5]];portConstraint=eastwest;whiteSpace=wrap;html=1;" vertex="1" parent="1n1pHUthxInLevBbwaHJ-109">
          <mxGeometry y="58" width="296" height="22" as="geometry" />
        </mxCell>
        <mxCell id="1n1pHUthxInLevBbwaHJ-113" value="+ LoadLoosingScene(): void" style="text;strokeColor=none;fillColor=none;align=left;verticalAlign=top;spacingLeft=4;spacingRight=4;overflow=hidden;rotatable=0;points=[[0,0.5],[1,0.5]];portConstraint=eastwest;whiteSpace=wrap;html=1;" vertex="1" parent="1n1pHUthxInLevBbwaHJ-109">
          <mxGeometry y="80" width="296" height="22" as="geometry" />
        </mxCell>
        <mxCell id="1n1pHUthxInLevBbwaHJ-114" value="+ LoadRaceScene(): void" style="text;strokeColor=none;fillColor=none;align=left;verticalAlign=top;spacingLeft=4;spacingRight=4;overflow=hidden;rotatable=0;points=[[0,0.5],[1,0.5]];portConstraint=eastwest;whiteSpace=wrap;html=1;" vertex="1" parent="1n1pHUthxInLevBbwaHJ-109">
          <mxGeometry y="102" width="296" height="22" as="geometry" />
        </mxCell>
        <mxCell id="1n1pHUthxInLevBbwaHJ-115" value="+ LoadCharacterSelectionScene(): void" style="text;strokeColor=none;fillColor=none;align=left;verticalAlign=top;spacingLeft=4;spacingRight=4;overflow=hidden;rotatable=0;points=[[0,0.5],[1,0.5]];portConstraint=eastwest;whiteSpace=wrap;html=1;" vertex="1" parent="1n1pHUthxInLevBbwaHJ-109">
          <mxGeometry y="124" width="296" height="26" as="geometry" />
        </mxCell>
        <mxCell id="1n1pHUthxInLevBbwaHJ-116" value="+ LoadMapSelectionScene(): void" style="text;strokeColor=none;fillColor=none;align=left;verticalAlign=top;spacingLeft=4;spacingRight=4;overflow=hidden;rotatable=0;points=[[0,0.5],[1,0.5]];portConstraint=eastwest;whiteSpace=wrap;html=1;" vertex="1" parent="1n1pHUthxInLevBbwaHJ-109">
          <mxGeometry y="150" width="296" height="26" as="geometry" />
        </mxCell>
        <mxCell id="1n1pHUthxInLevBbwaHJ-117" value="+ ImplementAnimation(): void" style="text;strokeColor=none;fillColor=none;align=left;verticalAlign=top;spacingLeft=4;spacingRight=4;overflow=hidden;rotatable=0;points=[[0,0.5],[1,0.5]];portConstraint=eastwest;whiteSpace=wrap;html=1;" vertex="1" parent="1n1pHUthxInLevBbwaHJ-109">
          <mxGeometry y="176" width="296" height="22" as="geometry" />
        </mxCell>
        <mxCell id="1n1pHUthxInLevBbwaHJ-118" value="AudioManager" style="swimlane;fontStyle=1;align=center;verticalAlign=top;childLayout=stackLayout;horizontal=1;startSize=26;horizontalStack=0;resizeParent=1;resizeParentMax=0;resizeLast=0;collapsible=1;marginBottom=0;whiteSpace=wrap;html=1;" vertex="1" parent="WIyWlLk6GJQsqaUBKTNV-1">
          <mxGeometry x="-659" y="-1640" width="200" height="202" as="geometry" />
        </mxCell>
        <mxCell id="1n1pHUthxInLevBbwaHJ-119" value="- backgroundMusic: AudioClip" style="text;strokeColor=none;fillColor=none;align=left;verticalAlign=top;spacingLeft=4;spacingRight=4;overflow=hidden;rotatable=0;points=[[0,0.5],[1,0.5]];portConstraint=eastwest;whiteSpace=wrap;html=1;" vertex="1" parent="1n1pHUthxInLevBbwaHJ-118">
          <mxGeometry y="26" width="200" height="24" as="geometry" />
        </mxCell>
        <mxCell id="1n1pHUthxInLevBbwaHJ-120" value="- effects: List&amp;lt;AudioClip&amp;gt;" style="text;strokeColor=none;fillColor=none;align=left;verticalAlign=top;spacingLeft=4;spacingRight=4;overflow=hidden;rotatable=0;points=[[0,0.5],[1,0.5]];portConstraint=eastwest;whiteSpace=wrap;html=1;" vertex="1" parent="1n1pHUthxInLevBbwaHJ-118">
          <mxGeometry y="50" width="200" height="24" as="geometry" />
        </mxCell>
        <mxCell id="1n1pHUthxInLevBbwaHJ-121" value="- time: float" style="text;strokeColor=none;fillColor=none;align=left;verticalAlign=top;spacingLeft=4;spacingRight=4;overflow=hidden;rotatable=0;points=[[0,0.5],[1,0.5]];portConstraint=eastwest;whiteSpace=wrap;html=1;" vertex="1" parent="1n1pHUthxInLevBbwaHJ-118">
          <mxGeometry y="74" width="200" height="24" as="geometry" />
        </mxCell>
        <mxCell id="1n1pHUthxInLevBbwaHJ-122" value="" style="line;strokeWidth=1;fillColor=none;align=left;verticalAlign=middle;spacingTop=-1;spacingLeft=3;spacingRight=3;rotatable=0;labelPosition=right;points=[];portConstraint=eastwest;strokeColor=inherit;" vertex="1" parent="1n1pHUthxInLevBbwaHJ-118">
          <mxGeometry y="98" width="200" height="8" as="geometry" />
        </mxCell>
        <mxCell id="1n1pHUthxInLevBbwaHJ-123" value="+ PlayMusic(): void" style="text;strokeColor=none;fillColor=none;align=left;verticalAlign=top;spacingLeft=4;spacingRight=4;overflow=hidden;rotatable=0;points=[[0,0.5],[1,0.5]];portConstraint=eastwest;whiteSpace=wrap;html=1;" vertex="1" parent="1n1pHUthxInLevBbwaHJ-118">
          <mxGeometry y="106" width="200" height="22" as="geometry" />
        </mxCell>
        <mxCell id="1n1pHUthxInLevBbwaHJ-124" value="+ StopMusic(): void" style="text;strokeColor=none;fillColor=none;align=left;verticalAlign=top;spacingLeft=4;spacingRight=4;overflow=hidden;rotatable=0;points=[[0,0.5],[1,0.5]];portConstraint=eastwest;whiteSpace=wrap;html=1;" vertex="1" parent="1n1pHUthxInLevBbwaHJ-118">
          <mxGeometry y="128" width="200" height="22" as="geometry" />
        </mxCell>
        <mxCell id="1n1pHUthxInLevBbwaHJ-125" value="+ PlayEffect(): void" style="text;strokeColor=none;fillColor=none;align=left;verticalAlign=top;spacingLeft=4;spacingRight=4;overflow=hidden;rotatable=0;points=[[0,0.5],[1,0.5]];portConstraint=eastwest;whiteSpace=wrap;html=1;" vertex="1" parent="1n1pHUthxInLevBbwaHJ-118">
          <mxGeometry y="150" width="200" height="26" as="geometry" />
        </mxCell>
        <mxCell id="1n1pHUthxInLevBbwaHJ-126" value="+ StopEffect(): void" style="text;strokeColor=none;fillColor=none;align=left;verticalAlign=top;spacingLeft=4;spacingRight=4;overflow=hidden;rotatable=0;points=[[0,0.5],[1,0.5]];portConstraint=eastwest;whiteSpace=wrap;html=1;" vertex="1" parent="1n1pHUthxInLevBbwaHJ-118">
          <mxGeometry y="176" width="200" height="26" as="geometry" />
        </mxCell>
        <mxCell id="1n1pHUthxInLevBbwaHJ-127" value="LapCounter" style="swimlane;fontStyle=1;align=center;verticalAlign=top;childLayout=stackLayout;horizontal=1;startSize=26;horizontalStack=0;resizeParent=1;resizeParentMax=0;resizeLast=0;collapsible=1;marginBottom=0;whiteSpace=wrap;html=1;" vertex="1" parent="WIyWlLk6GJQsqaUBKTNV-1">
          <mxGeometry x="-1680" y="-1320" width="200" height="112" as="geometry" />
        </mxCell>
        <mxCell id="1n1pHUthxInLevBbwaHJ-128" value="- currentLap: int" style="text;strokeColor=none;fillColor=none;align=left;verticalAlign=top;spacingLeft=4;spacingRight=4;overflow=hidden;rotatable=0;points=[[0,0.5],[1,0.5]];portConstraint=eastwest;whiteSpace=wrap;html=1;" vertex="1" parent="1n1pHUthxInLevBbwaHJ-127">
          <mxGeometry y="26" width="200" height="26" as="geometry" />
        </mxCell>
        <mxCell id="1n1pHUthxInLevBbwaHJ-129" value="- TotalLaps: int" style="text;strokeColor=none;fillColor=none;align=left;verticalAlign=top;spacingLeft=4;spacingRight=4;overflow=hidden;rotatable=0;points=[[0,0.5],[1,0.5]];portConstraint=eastwest;whiteSpace=wrap;html=1;" vertex="1" parent="1n1pHUthxInLevBbwaHJ-127">
          <mxGeometry y="52" width="200" height="26" as="geometry" />
        </mxCell>
        <mxCell id="1n1pHUthxInLevBbwaHJ-130" value="" style="line;strokeWidth=1;fillColor=none;align=left;verticalAlign=middle;spacingTop=-1;spacingLeft=3;spacingRight=3;rotatable=0;labelPosition=right;points=[];portConstraint=eastwest;strokeColor=inherit;" vertex="1" parent="1n1pHUthxInLevBbwaHJ-127">
          <mxGeometry y="78" width="200" height="8" as="geometry" />
        </mxCell>
        <mxCell id="1n1pHUthxInLevBbwaHJ-131" value="+ UpdateLap(): void" style="text;strokeColor=none;fillColor=none;align=left;verticalAlign=top;spacingLeft=4;spacingRight=4;overflow=hidden;rotatable=0;points=[[0,0.5],[1,0.5]];portConstraint=eastwest;whiteSpace=wrap;html=1;" vertex="1" parent="1n1pHUthxInLevBbwaHJ-127">
          <mxGeometry y="86" width="200" height="26" as="geometry" />
        </mxCell>
        <mxCell id="1n1pHUthxInLevBbwaHJ-132" value="MainMenu" style="swimlane;fontStyle=1;align=center;verticalAlign=top;childLayout=stackLayout;horizontal=1;startSize=26;horizontalStack=0;resizeParent=1;resizeParentMax=0;resizeLast=0;collapsible=1;marginBottom=0;whiteSpace=wrap;html=1;" vertex="1" parent="WIyWlLk6GJQsqaUBKTNV-1">
          <mxGeometry x="-1445" y="-1320" width="200" height="86" as="geometry" />
        </mxCell>
        <mxCell id="1n1pHUthxInLevBbwaHJ-133" value="&amp;nbsp;" style="text;strokeColor=none;fillColor=none;align=left;verticalAlign=top;spacingLeft=4;spacingRight=4;overflow=hidden;rotatable=0;points=[[0,0.5],[1,0.5]];portConstraint=eastwest;whiteSpace=wrap;html=1;" vertex="1" parent="1n1pHUthxInLevBbwaHJ-132">
          <mxGeometry y="26" width="200" height="26" as="geometry" />
        </mxCell>
        <mxCell id="1n1pHUthxInLevBbwaHJ-134" value="" style="line;strokeWidth=1;fillColor=none;align=left;verticalAlign=middle;spacingTop=-1;spacingLeft=3;spacingRight=3;rotatable=0;labelPosition=right;points=[];portConstraint=eastwest;strokeColor=inherit;" vertex="1" parent="1n1pHUthxInLevBbwaHJ-132">
          <mxGeometry y="52" width="200" height="8" as="geometry" />
        </mxCell>
        <mxCell id="1n1pHUthxInLevBbwaHJ-135" value="+ DisplayMainMenu(): void" style="text;strokeColor=none;fillColor=none;align=left;verticalAlign=top;spacingLeft=4;spacingRight=4;overflow=hidden;rotatable=0;points=[[0,0.5],[1,0.5]];portConstraint=eastwest;whiteSpace=wrap;html=1;" vertex="1" parent="1n1pHUthxInLevBbwaHJ-132">
          <mxGeometry y="60" width="200" height="26" as="geometry" />
        </mxCell>
        <mxCell id="1n1pHUthxInLevBbwaHJ-136" value="RaceScene" style="swimlane;fontStyle=1;align=center;verticalAlign=top;childLayout=stackLayout;horizontal=1;startSize=26;horizontalStack=0;resizeParent=1;resizeParentMax=0;resizeLast=0;collapsible=1;marginBottom=0;whiteSpace=wrap;html=1;" vertex="1" parent="WIyWlLk6GJQsqaUBKTNV-1">
          <mxGeometry x="183" y="-1320" width="200" height="86" as="geometry" />
        </mxCell>
        <mxCell id="1n1pHUthxInLevBbwaHJ-137" value="&amp;nbsp;" style="text;strokeColor=none;fillColor=none;align=left;verticalAlign=top;spacingLeft=4;spacingRight=4;overflow=hidden;rotatable=0;points=[[0,0.5],[1,0.5]];portConstraint=eastwest;whiteSpace=wrap;html=1;" vertex="1" parent="1n1pHUthxInLevBbwaHJ-136">
          <mxGeometry y="26" width="200" height="26" as="geometry" />
        </mxCell>
        <mxCell id="1n1pHUthxInLevBbwaHJ-138" value="" style="line;strokeWidth=1;fillColor=none;align=left;verticalAlign=middle;spacingTop=-1;spacingLeft=3;spacingRight=3;rotatable=0;labelPosition=right;points=[];portConstraint=eastwest;strokeColor=inherit;" vertex="1" parent="1n1pHUthxInLevBbwaHJ-136">
          <mxGeometry y="52" width="200" height="8" as="geometry" />
        </mxCell>
        <mxCell id="1n1pHUthxInLevBbwaHJ-139" value="+ LoadRaceScene(): void" style="text;strokeColor=none;fillColor=none;align=left;verticalAlign=top;spacingLeft=4;spacingRight=4;overflow=hidden;rotatable=0;points=[[0,0.5],[1,0.5]];portConstraint=eastwest;whiteSpace=wrap;html=1;" vertex="1" parent="1n1pHUthxInLevBbwaHJ-136">
          <mxGeometry y="60" width="200" height="26" as="geometry" />
        </mxCell>
        <mxCell id="1n1pHUthxInLevBbwaHJ-140" value="CharacterSelectionScene" style="swimlane;fontStyle=1;align=center;verticalAlign=top;childLayout=stackLayout;horizontal=1;startSize=26;horizontalStack=0;resizeParent=1;resizeParentMax=0;resizeLast=0;collapsible=1;marginBottom=0;whiteSpace=wrap;html=1;" vertex="1" parent="WIyWlLk6GJQsqaUBKTNV-1">
          <mxGeometry x="-440" y="-970.0000000000001" width="270" height="130" as="geometry" />
        </mxCell>
        <mxCell id="1n1pHUthxInLevBbwaHJ-141" value="+ BackToMainMenu: Button" style="text;strokeColor=none;fillColor=none;align=left;verticalAlign=top;spacingLeft=4;spacingRight=4;overflow=hidden;rotatable=0;points=[[0,0.5],[1,0.5]];portConstraint=eastwest;whiteSpace=wrap;html=1;" vertex="1" parent="1n1pHUthxInLevBbwaHJ-140">
          <mxGeometry y="26" width="270" height="26" as="geometry" />
        </mxCell>
        <mxCell id="1n1pHUthxInLevBbwaHJ-142" value="- availableCharacters: List&amp;lt;Character&amp;gt;" style="text;strokeColor=none;fillColor=none;align=left;verticalAlign=top;spacingLeft=4;spacingRight=4;overflow=hidden;rotatable=0;points=[[0,0.5],[1,0.5]];portConstraint=eastwest;whiteSpace=wrap;html=1;" vertex="1" parent="1n1pHUthxInLevBbwaHJ-140">
          <mxGeometry y="52" width="270" height="24" as="geometry" />
        </mxCell>
        <mxCell id="1n1pHUthxInLevBbwaHJ-143" value="+ selectedCharacter: Character" style="text;strokeColor=none;fillColor=none;align=left;verticalAlign=top;spacingLeft=4;spacingRight=4;overflow=hidden;rotatable=0;points=[[0,0.5],[1,0.5]];portConstraint=eastwest;whiteSpace=wrap;html=1;" vertex="1" parent="1n1pHUthxInLevBbwaHJ-140">
          <mxGeometry y="76" width="270" height="24" as="geometry" />
        </mxCell>
        <mxCell id="1n1pHUthxInLevBbwaHJ-144" value="" style="line;strokeWidth=1;fillColor=none;align=left;verticalAlign=middle;spacingTop=-1;spacingLeft=3;spacingRight=3;rotatable=0;labelPosition=right;points=[];portConstraint=eastwest;strokeColor=inherit;" vertex="1" parent="1n1pHUthxInLevBbwaHJ-140">
          <mxGeometry y="100" width="270" height="8" as="geometry" />
        </mxCell>
        <mxCell id="1n1pHUthxInLevBbwaHJ-145" value="+ LoadCharacterSelectionScene(): void" style="text;strokeColor=none;fillColor=none;align=left;verticalAlign=top;spacingLeft=4;spacingRight=4;overflow=hidden;rotatable=0;points=[[0,0.5],[1,0.5]];portConstraint=eastwest;whiteSpace=wrap;html=1;" vertex="1" parent="1n1pHUthxInLevBbwaHJ-140">
          <mxGeometry y="108" width="270" height="22" as="geometry" />
        </mxCell>
        <mxCell id="1n1pHUthxInLevBbwaHJ-146" value="VehicleSelectionScene" style="swimlane;fontStyle=1;align=center;verticalAlign=top;childLayout=stackLayout;horizontal=1;startSize=26;horizontalStack=0;resizeParent=1;resizeParentMax=0;resizeLast=0;collapsible=1;marginBottom=0;whiteSpace=wrap;html=1;" vertex="1" parent="WIyWlLk6GJQsqaUBKTNV-1">
          <mxGeometry x="-140" y="-970.0000000000001" width="240" height="130" as="geometry" />
        </mxCell>
        <mxCell id="1n1pHUthxInLevBbwaHJ-147" value="+ BackToMainMenu: Button" style="text;strokeColor=none;fillColor=none;align=left;verticalAlign=top;spacingLeft=4;spacingRight=4;overflow=hidden;rotatable=0;points=[[0,0.5],[1,0.5]];portConstraint=eastwest;whiteSpace=wrap;html=1;" vertex="1" parent="1n1pHUthxInLevBbwaHJ-146">
          <mxGeometry y="26" width="240" height="26" as="geometry" />
        </mxCell>
        <mxCell id="1n1pHUthxInLevBbwaHJ-148" value="- availableVehicles: List&amp;lt;Vehicle&amp;gt;" style="text;strokeColor=none;fillColor=none;align=left;verticalAlign=top;spacingLeft=4;spacingRight=4;overflow=hidden;rotatable=0;points=[[0,0.5],[1,0.5]];portConstraint=eastwest;whiteSpace=wrap;html=1;" vertex="1" parent="1n1pHUthxInLevBbwaHJ-146">
          <mxGeometry y="52" width="240" height="24" as="geometry" />
        </mxCell>
        <mxCell id="1n1pHUthxInLevBbwaHJ-149" value="+ selectedVehicle: Vehicle " style="text;strokeColor=none;fillColor=none;align=left;verticalAlign=top;spacingLeft=4;spacingRight=4;overflow=hidden;rotatable=0;points=[[0,0.5],[1,0.5]];portConstraint=eastwest;whiteSpace=wrap;html=1;" vertex="1" parent="1n1pHUthxInLevBbwaHJ-146">
          <mxGeometry y="76" width="240" height="24" as="geometry" />
        </mxCell>
        <mxCell id="1n1pHUthxInLevBbwaHJ-150" value="" style="line;strokeWidth=1;fillColor=none;align=left;verticalAlign=middle;spacingTop=-1;spacingLeft=3;spacingRight=3;rotatable=0;labelPosition=right;points=[];portConstraint=eastwest;strokeColor=inherit;" vertex="1" parent="1n1pHUthxInLevBbwaHJ-146">
          <mxGeometry y="100" width="240" height="8" as="geometry" />
        </mxCell>
        <mxCell id="1n1pHUthxInLevBbwaHJ-151" value="+ LoadVehicleSelectionScene(): void" style="text;strokeColor=none;fillColor=none;align=left;verticalAlign=top;spacingLeft=4;spacingRight=4;overflow=hidden;rotatable=0;points=[[0,0.5],[1,0.5]];portConstraint=eastwest;whiteSpace=wrap;html=1;" vertex="1" parent="1n1pHUthxInLevBbwaHJ-146">
          <mxGeometry y="108" width="240" height="22" as="geometry" />
        </mxCell>
        <mxCell id="1n1pHUthxInLevBbwaHJ-152" value="MapSelectionScene" style="swimlane;fontStyle=1;align=center;verticalAlign=top;childLayout=stackLayout;horizontal=1;startSize=26;horizontalStack=0;resizeParent=1;resizeParentMax=0;resizeLast=0;collapsible=1;marginBottom=0;whiteSpace=wrap;html=1;" vertex="1" parent="WIyWlLk6GJQsqaUBKTNV-1">
          <mxGeometry x="191" y="-970.0000000000001" width="240" height="130" as="geometry" />
        </mxCell>
        <mxCell id="1n1pHUthxInLevBbwaHJ-153" value="+ BackToMainMenu: Button" style="text;strokeColor=none;fillColor=none;align=left;verticalAlign=top;spacingLeft=4;spacingRight=4;overflow=hidden;rotatable=0;points=[[0,0.5],[1,0.5]];portConstraint=eastwest;whiteSpace=wrap;html=1;" vertex="1" parent="1n1pHUthxInLevBbwaHJ-152">
          <mxGeometry y="26" width="240" height="26" as="geometry" />
        </mxCell>
        <mxCell id="1n1pHUthxInLevBbwaHJ-154" value="- availableMaps: List&amp;lt;Map&amp;gt;" style="text;strokeColor=none;fillColor=none;align=left;verticalAlign=top;spacingLeft=4;spacingRight=4;overflow=hidden;rotatable=0;points=[[0,0.5],[1,0.5]];portConstraint=eastwest;whiteSpace=wrap;html=1;" vertex="1" parent="1n1pHUthxInLevBbwaHJ-152">
          <mxGeometry y="52" width="240" height="24" as="geometry" />
        </mxCell>
        <mxCell id="1n1pHUthxInLevBbwaHJ-155" value="+ selectedMap: Map " style="text;strokeColor=none;fillColor=none;align=left;verticalAlign=top;spacingLeft=4;spacingRight=4;overflow=hidden;rotatable=0;points=[[0,0.5],[1,0.5]];portConstraint=eastwest;whiteSpace=wrap;html=1;" vertex="1" parent="1n1pHUthxInLevBbwaHJ-152">
          <mxGeometry y="76" width="240" height="24" as="geometry" />
        </mxCell>
        <mxCell id="1n1pHUthxInLevBbwaHJ-156" value="" style="line;strokeWidth=1;fillColor=none;align=left;verticalAlign=middle;spacingTop=-1;spacingLeft=3;spacingRight=3;rotatable=0;labelPosition=right;points=[];portConstraint=eastwest;strokeColor=inherit;" vertex="1" parent="1n1pHUthxInLevBbwaHJ-152">
          <mxGeometry y="100" width="240" height="8" as="geometry" />
        </mxCell>
        <mxCell id="1n1pHUthxInLevBbwaHJ-157" value="+ LoadMapSelectionScene(): void" style="text;strokeColor=none;fillColor=none;align=left;verticalAlign=top;spacingLeft=4;spacingRight=4;overflow=hidden;rotatable=0;points=[[0,0.5],[1,0.5]];portConstraint=eastwest;whiteSpace=wrap;html=1;" vertex="1" parent="1n1pHUthxInLevBbwaHJ-152">
          <mxGeometry y="108" width="240" height="22" as="geometry" />
        </mxCell>
        <mxCell id="1n1pHUthxInLevBbwaHJ-201" value="" style="endArrow=diamondThin;endFill=1;endSize=24;html=1;rounded=0;exitX=0.448;exitY=1.02;exitDx=0;exitDy=0;exitPerimeter=0;entryX=0.5;entryY=0;entryDx=0;entryDy=0;" edge="1" parent="WIyWlLk6GJQsqaUBKTNV-1" source="1n1pHUthxInLevBbwaHJ-229" target="1n1pHUthxInLevBbwaHJ-104">
          <mxGeometry width="160" relative="1" as="geometry">
            <mxPoint x="-1708.4" y="-1487.21" as="sourcePoint" />
            <mxPoint x="-1070" y="-1240" as="targetPoint" />
            <Array as="points">
              <mxPoint x="-1720" y="-1400" />
              <mxPoint x="-1850" y="-1400" />
            </Array>
          </mxGeometry>
        </mxCell>
        <mxCell id="1n1pHUthxInLevBbwaHJ-202" value="" style="endArrow=diamondThin;endFill=1;endSize=24;html=1;rounded=0;exitX=0.449;exitY=1.02;exitDx=0;exitDy=0;exitPerimeter=0;entryX=0.5;entryY=0;entryDx=0;entryDy=0;" edge="1" parent="WIyWlLk6GJQsqaUBKTNV-1" source="1n1pHUthxInLevBbwaHJ-229" target="1n1pHUthxInLevBbwaHJ-127">
          <mxGeometry width="160" relative="1" as="geometry">
            <mxPoint x="-1708.6" y="-1489.566" as="sourcePoint" />
            <mxPoint x="-1840" y="-1230" as="targetPoint" />
            <Array as="points">
              <mxPoint x="-1720" y="-1400" />
              <mxPoint x="-1580" y="-1400" />
            </Array>
          </mxGeometry>
        </mxCell>
        <mxCell id="1n1pHUthxInLevBbwaHJ-203" value="" style="endArrow=diamondThin;endFill=1;endSize=24;html=1;rounded=0;exitX=0.5;exitY=1.009;exitDx=0;exitDy=0;exitPerimeter=0;entryX=0.457;entryY=-0.032;entryDx=0;entryDy=0;entryPerimeter=0;" edge="1" parent="WIyWlLk6GJQsqaUBKTNV-1" source="1n1pHUthxInLevBbwaHJ-221" target="1n1pHUthxInLevBbwaHJ-132">
          <mxGeometry width="160" relative="1" as="geometry">
            <mxPoint x="-1098.6" y="-1422.988" as="sourcePoint" />
            <mxPoint x="-1830" y="-1220" as="targetPoint" />
            <Array as="points">
              <mxPoint x="-1099" y="-1380" />
              <mxPoint x="-1354" y="-1380" />
            </Array>
          </mxGeometry>
        </mxCell>
        <mxCell id="1n1pHUthxInLevBbwaHJ-204" value="" style="endArrow=diamondThin;endFill=1;endSize=24;html=1;rounded=0;entryX=0.5;entryY=0;entryDx=0;entryDy=0;exitX=0.503;exitY=1.115;exitDx=0;exitDy=0;exitPerimeter=0;" edge="1" parent="WIyWlLk6GJQsqaUBKTNV-1" source="1n1pHUthxInLevBbwaHJ-126" target="1n1pHUthxInLevBbwaHJ-230">
          <mxGeometry width="160" relative="1" as="geometry">
            <mxPoint x="-580.5" y="-1437" as="sourcePoint" />
            <mxPoint x="-577.5" y="-1320" as="targetPoint" />
          </mxGeometry>
        </mxCell>
        <mxCell id="1n1pHUthxInLevBbwaHJ-205" value="" style="endArrow=diamondThin;endFill=1;endSize=24;html=1;rounded=0;exitX=0.495;exitY=0.964;exitDx=0;exitDy=0;exitPerimeter=0;entryX=0.555;entryY=0.006;entryDx=0;entryDy=0;entryPerimeter=0;" edge="1" parent="WIyWlLk6GJQsqaUBKTNV-1" source="1n1pHUthxInLevBbwaHJ-117" target="1n1pHUthxInLevBbwaHJ-23">
          <mxGeometry width="160" relative="1" as="geometry">
            <mxPoint x="412" y="-1531.584" as="sourcePoint" />
            <mxPoint x="293" y="-1250" as="targetPoint" />
            <Array as="points">
              <mxPoint x="283" y="-1400" />
              <mxPoint x="560" y="-1400" />
            </Array>
          </mxGeometry>
        </mxCell>
        <mxCell id="1n1pHUthxInLevBbwaHJ-206" value="" style="endArrow=diamondThin;endFill=1;endSize=24;html=1;rounded=0;exitX=0.498;exitY=1.029;exitDx=0;exitDy=0;exitPerimeter=0;entryX=0.5;entryY=0;entryDx=0;entryDy=0;" edge="1" parent="WIyWlLk6GJQsqaUBKTNV-1" source="1n1pHUthxInLevBbwaHJ-246" target="1n1pHUthxInLevBbwaHJ-73">
          <mxGeometry width="160" relative="1" as="geometry">
            <mxPoint x="1070.6" y="-1527.45" as="sourcePoint" />
            <mxPoint x="956" y="-1247" as="targetPoint" />
            <Array as="points">
              <mxPoint x="1080" y="-1439" />
              <mxPoint x="960" y="-1439" />
            </Array>
          </mxGeometry>
        </mxCell>
        <mxCell id="1n1pHUthxInLevBbwaHJ-207" value="" style="endArrow=diamondThin;endFill=1;endSize=24;html=1;rounded=0;exitX=0.496;exitY=1.003;exitDx=0;exitDy=0;exitPerimeter=0;entryX=0.5;entryY=0;entryDx=0;entryDy=0;" edge="1" parent="WIyWlLk6GJQsqaUBKTNV-1" source="1n1pHUthxInLevBbwaHJ-246" target="1n1pHUthxInLevBbwaHJ-247">
          <mxGeometry width="160" relative="1" as="geometry">
            <mxPoint x="1069.6" y="-1529.124" as="sourcePoint" />
            <mxPoint x="1200" y="-1359" as="targetPoint" />
            <Array as="points">
              <mxPoint x="1080" y="-1439" />
              <mxPoint x="1200" y="-1439" />
            </Array>
          </mxGeometry>
        </mxCell>
        <mxCell id="1n1pHUthxInLevBbwaHJ-209" value="" style="endArrow=diamondThin;endFill=0;endSize=24;html=1;rounded=0;exitX=0.493;exitY=1.011;exitDx=0;exitDy=0;exitPerimeter=0;entryX=0.5;entryY=0;entryDx=0;entryDy=0;" edge="1" parent="WIyWlLk6GJQsqaUBKTNV-1" source="1n1pHUthxInLevBbwaHJ-256" target="1n1pHUthxInLevBbwaHJ-222">
          <mxGeometry width="160" relative="1" as="geometry">
            <mxPoint x="-561.1999999999998" y="-1919.752" as="sourcePoint" />
            <mxPoint x="-1710" y="-1640" as="targetPoint" />
            <Array as="points">
              <mxPoint x="-560" y="-1840" />
              <mxPoint x="-1710" y="-1840" />
            </Array>
          </mxGeometry>
        </mxCell>
        <mxCell id="1n1pHUthxInLevBbwaHJ-210" value="" style="endArrow=diamondThin;endFill=0;endSize=24;html=1;rounded=0;exitX=0.493;exitY=0.997;exitDx=0;exitDy=0;exitPerimeter=0;entryX=0.5;entryY=0;entryDx=0;entryDy=0;" edge="1" parent="WIyWlLk6GJQsqaUBKTNV-1" source="1n1pHUthxInLevBbwaHJ-256" target="1n1pHUthxInLevBbwaHJ-217">
          <mxGeometry width="160" relative="1" as="geometry">
            <mxPoint x="-560.7999999999997" y="-1919.442" as="sourcePoint" />
            <mxPoint x="-1300" y="-1640" as="targetPoint" />
            <Array as="points">
              <mxPoint x="-561" y="-1840" />
              <mxPoint x="-1100" y="-1840" />
            </Array>
          </mxGeometry>
        </mxCell>
        <mxCell id="1n1pHUthxInLevBbwaHJ-211" value="" style="endArrow=diamondThin;endFill=0;endSize=24;html=1;rounded=0;exitX=0.494;exitY=1.015;exitDx=0;exitDy=0;exitPerimeter=0;entryX=0.5;entryY=0;entryDx=0;entryDy=0;" edge="1" parent="WIyWlLk6GJQsqaUBKTNV-1" source="1n1pHUthxInLevBbwaHJ-256" target="1n1pHUthxInLevBbwaHJ-118">
          <mxGeometry width="160" relative="1" as="geometry">
            <mxPoint x="-560.7999999999997" y="-1919.442" as="sourcePoint" />
            <mxPoint x="-991" y="-1460" as="targetPoint" />
            <Array as="points">
              <mxPoint x="-560" y="-1840" />
            </Array>
          </mxGeometry>
        </mxCell>
        <mxCell id="1n1pHUthxInLevBbwaHJ-212" value="" style="endArrow=diamondThin;endFill=0;endSize=24;html=1;rounded=0;exitX=0.493;exitY=1.011;exitDx=0;exitDy=0;exitPerimeter=0;entryX=0.553;entryY=-0.005;entryDx=0;entryDy=0;entryPerimeter=0;" edge="1" parent="WIyWlLk6GJQsqaUBKTNV-1" source="1n1pHUthxInLevBbwaHJ-256" target="1n1pHUthxInLevBbwaHJ-109">
          <mxGeometry width="160" relative="1" as="geometry">
            <mxPoint x="-561" y="-1918.512" as="sourcePoint" />
            <mxPoint x="-530" y="-1540" as="targetPoint" />
            <Array as="points">
              <mxPoint x="-560" y="-1840" />
              <mxPoint x="299" y="-1840" />
            </Array>
          </mxGeometry>
        </mxCell>
        <mxCell id="1n1pHUthxInLevBbwaHJ-213" value="" style="endArrow=diamondThin;endFill=0;endSize=24;html=1;rounded=0;exitX=0.493;exitY=1.001;exitDx=0;exitDy=0;exitPerimeter=0;entryX=0.5;entryY=0;entryDx=0;entryDy=0;" edge="1" parent="WIyWlLk6GJQsqaUBKTNV-1" source="1n1pHUthxInLevBbwaHJ-256" target="1n1pHUthxInLevBbwaHJ-239">
          <mxGeometry width="160" relative="1" as="geometry">
            <mxPoint x="-560.7999999999997" y="-1919.442" as="sourcePoint" />
            <mxPoint x="-20" y="-1640" as="targetPoint" />
            <Array as="points">
              <mxPoint x="-560" y="-1840" />
              <mxPoint x="1080" y="-1840" />
            </Array>
          </mxGeometry>
        </mxCell>
        <mxCell id="1n1pHUthxInLevBbwaHJ-214" value="" style="endArrow=diamondThin;endFill=1;endSize=24;html=1;rounded=0;entryX=0.476;entryY=-0.003;entryDx=0;entryDy=0;entryPerimeter=0;exitX=0.504;exitY=1.046;exitDx=0;exitDy=0;exitPerimeter=0;" edge="1" parent="WIyWlLk6GJQsqaUBKTNV-1" source="1n1pHUthxInLevBbwaHJ-275" target="1n1pHUthxInLevBbwaHJ-140">
          <mxGeometry width="160" relative="1" as="geometry">
            <mxPoint x="-220" y="-1070" as="sourcePoint" />
            <mxPoint x="-298.8699999999999" y="-906.1700000000001" as="targetPoint" />
            <Array as="points">
              <mxPoint x="-20" y="-1040" />
              <mxPoint x="-311" y="-1040" />
            </Array>
          </mxGeometry>
        </mxCell>
        <mxCell id="1n1pHUthxInLevBbwaHJ-215" value="" style="endArrow=diamondThin;endFill=1;endSize=24;html=1;rounded=0;exitX=0.501;exitY=1.077;exitDx=0;exitDy=0;exitPerimeter=0;entryX=0.5;entryY=0;entryDx=0;entryDy=0;" edge="1" parent="WIyWlLk6GJQsqaUBKTNV-1" source="1n1pHUthxInLevBbwaHJ-275" target="1n1pHUthxInLevBbwaHJ-146">
          <mxGeometry width="160" relative="1" as="geometry">
            <mxPoint x="8.760000000000218" y="-1060.0040000000001" as="sourcePoint" />
            <mxPoint x="5.9999999999990905" y="-906.1700000000001" as="targetPoint" />
          </mxGeometry>
        </mxCell>
        <mxCell id="1n1pHUthxInLevBbwaHJ-216" value="" style="endArrow=diamondThin;endFill=1;endSize=24;html=1;rounded=0;exitX=0.504;exitY=1.108;exitDx=0;exitDy=0;exitPerimeter=0;entryX=0.5;entryY=0;entryDx=0;entryDy=0;" edge="1" parent="WIyWlLk6GJQsqaUBKTNV-1" source="1n1pHUthxInLevBbwaHJ-275" target="1n1pHUthxInLevBbwaHJ-152">
          <mxGeometry width="160" relative="1" as="geometry">
            <mxPoint x="320.8299999999999" y="-1032.028" as="sourcePoint" />
            <mxPoint x="315.9999999999991" y="-909.1700000000001" as="targetPoint" />
            <Array as="points">
              <mxPoint x="-19" y="-1040" />
              <mxPoint x="310" y="-1040" />
            </Array>
          </mxGeometry>
        </mxCell>
        <mxCell id="1n1pHUthxInLevBbwaHJ-217" value="MenuManager" style="swimlane;fontStyle=1;align=center;verticalAlign=top;childLayout=stackLayout;horizontal=1;startSize=26;horizontalStack=0;resizeParent=1;resizeParentMax=0;resizeLast=0;collapsible=1;marginBottom=0;whiteSpace=wrap;html=1;" vertex="1" parent="WIyWlLk6GJQsqaUBKTNV-1">
          <mxGeometry x="-1200" y="-1640" width="200" height="112" as="geometry" />
        </mxCell>
        <mxCell id="1n1pHUthxInLevBbwaHJ-218" value="" style="line;strokeWidth=1;fillColor=none;align=left;verticalAlign=middle;spacingTop=-1;spacingLeft=3;spacingRight=3;rotatable=0;labelPosition=right;points=[];portConstraint=eastwest;strokeColor=inherit;" vertex="1" parent="1n1pHUthxInLevBbwaHJ-217">
          <mxGeometry y="26" width="200" height="8" as="geometry" />
        </mxCell>
        <mxCell id="1n1pHUthxInLevBbwaHJ-219" value="+ DisplayMainMenu(): void" style="text;strokeColor=none;fillColor=none;align=left;verticalAlign=top;spacingLeft=4;spacingRight=4;overflow=hidden;rotatable=0;points=[[0,0.5],[1,0.5]];portConstraint=eastwest;whiteSpace=wrap;html=1;" vertex="1" parent="1n1pHUthxInLevBbwaHJ-217">
          <mxGeometry y="34" width="200" height="26" as="geometry" />
        </mxCell>
        <mxCell id="1n1pHUthxInLevBbwaHJ-220" value="+ DisplayGameMenu(): void" style="text;strokeColor=none;fillColor=none;align=left;verticalAlign=top;spacingLeft=4;spacingRight=4;overflow=hidden;rotatable=0;points=[[0,0.5],[1,0.5]];portConstraint=eastwest;whiteSpace=wrap;html=1;" vertex="1" parent="1n1pHUthxInLevBbwaHJ-217">
          <mxGeometry y="60" width="200" height="26" as="geometry" />
        </mxCell>
        <mxCell id="1n1pHUthxInLevBbwaHJ-221" value="+ DisplaySelectionMenu(): void" style="text;strokeColor=none;fillColor=none;align=left;verticalAlign=top;spacingLeft=4;spacingRight=4;overflow=hidden;rotatable=0;points=[[0,0.5],[1,0.5]];portConstraint=eastwest;whiteSpace=wrap;html=1;" vertex="1" parent="1n1pHUthxInLevBbwaHJ-217">
          <mxGeometry y="86" width="200" height="26" as="geometry" />
        </mxCell>
        <mxCell id="1n1pHUthxInLevBbwaHJ-222" value="RaceControlManager" style="swimlane;fontStyle=1;align=center;verticalAlign=top;childLayout=stackLayout;horizontal=1;startSize=26;horizontalStack=0;resizeParent=1;resizeParentMax=0;resizeLast=0;collapsible=1;marginBottom=0;whiteSpace=wrap;html=1;" vertex="1" parent="WIyWlLk6GJQsqaUBKTNV-1">
          <mxGeometry x="-1810" y="-1640" width="200" height="190" as="geometry" />
        </mxCell>
        <mxCell id="1n1pHUthxInLevBbwaHJ-223" value="- lapsRemaining: int" style="text;strokeColor=none;fillColor=none;align=left;verticalAlign=top;spacingLeft=4;spacingRight=4;overflow=hidden;rotatable=0;points=[[0,0.5],[1,0.5]];portConstraint=eastwest;whiteSpace=wrap;html=1;" vertex="1" parent="1n1pHUthxInLevBbwaHJ-222">
          <mxGeometry y="26" width="200" height="26" as="geometry" />
        </mxCell>
        <mxCell id="1n1pHUthxInLevBbwaHJ-224" value="- raceStarted: bool" style="text;strokeColor=none;fillColor=none;align=left;verticalAlign=top;spacingLeft=4;spacingRight=4;overflow=hidden;rotatable=0;points=[[0,0.5],[1,0.5]];portConstraint=eastwest;whiteSpace=wrap;html=1;" vertex="1" parent="1n1pHUthxInLevBbwaHJ-222">
          <mxGeometry y="52" width="200" height="26" as="geometry" />
        </mxCell>
        <mxCell id="1n1pHUthxInLevBbwaHJ-225" value="- raceEnded: bool" style="text;strokeColor=none;fillColor=none;align=left;verticalAlign=top;spacingLeft=4;spacingRight=4;overflow=hidden;rotatable=0;points=[[0,0.5],[1,0.5]];portConstraint=eastwest;whiteSpace=wrap;html=1;" vertex="1" parent="1n1pHUthxInLevBbwaHJ-222">
          <mxGeometry y="78" width="200" height="26" as="geometry" />
        </mxCell>
        <mxCell id="1n1pHUthxInLevBbwaHJ-226" value="" style="line;strokeWidth=1;fillColor=none;align=left;verticalAlign=middle;spacingTop=-1;spacingLeft=3;spacingRight=3;rotatable=0;labelPosition=right;points=[];portConstraint=eastwest;strokeColor=inherit;" vertex="1" parent="1n1pHUthxInLevBbwaHJ-222">
          <mxGeometry y="104" width="200" height="8" as="geometry" />
        </mxCell>
        <mxCell id="1n1pHUthxInLevBbwaHJ-227" value="+ StartRace(): void" style="text;strokeColor=none;fillColor=none;align=left;verticalAlign=top;spacingLeft=4;spacingRight=4;overflow=hidden;rotatable=0;points=[[0,0.5],[1,0.5]];portConstraint=eastwest;whiteSpace=wrap;html=1;" vertex="1" parent="1n1pHUthxInLevBbwaHJ-222">
          <mxGeometry y="112" width="200" height="26" as="geometry" />
        </mxCell>
        <mxCell id="1n1pHUthxInLevBbwaHJ-228" value="+ EndRace(): void" style="text;strokeColor=none;fillColor=none;align=left;verticalAlign=top;spacingLeft=4;spacingRight=4;overflow=hidden;rotatable=0;points=[[0,0.5],[1,0.5]];portConstraint=eastwest;whiteSpace=wrap;html=1;" vertex="1" parent="1n1pHUthxInLevBbwaHJ-222">
          <mxGeometry y="138" width="200" height="26" as="geometry" />
        </mxCell>
        <mxCell id="1n1pHUthxInLevBbwaHJ-229" value="+ UpdateRaceStatus(): void" style="text;strokeColor=none;fillColor=none;align=left;verticalAlign=top;spacingLeft=4;spacingRight=4;overflow=hidden;rotatable=0;points=[[0,0.5],[1,0.5]];portConstraint=eastwest;whiteSpace=wrap;html=1;" vertex="1" parent="1n1pHUthxInLevBbwaHJ-222">
          <mxGeometry y="164" width="200" height="26" as="geometry" />
        </mxCell>
        <mxCell id="1n1pHUthxInLevBbwaHJ-230" value="Sound" style="swimlane;fontStyle=1;align=center;verticalAlign=top;childLayout=stackLayout;horizontal=1;startSize=26;horizontalStack=0;resizeParent=1;resizeParentMax=0;resizeLast=0;collapsible=1;marginBottom=0;whiteSpace=wrap;html=1;" vertex="1" parent="WIyWlLk6GJQsqaUBKTNV-1">
          <mxGeometry x="-659" y="-1319" width="200" height="202" as="geometry" />
        </mxCell>
        <mxCell id="1n1pHUthxInLevBbwaHJ-231" value="- backgroundMusic: AudioClip" style="text;strokeColor=none;fillColor=none;align=left;verticalAlign=top;spacingLeft=4;spacingRight=4;overflow=hidden;rotatable=0;points=[[0,0.5],[1,0.5]];portConstraint=eastwest;whiteSpace=wrap;html=1;" vertex="1" parent="1n1pHUthxInLevBbwaHJ-230">
          <mxGeometry y="26" width="200" height="24" as="geometry" />
        </mxCell>
        <mxCell id="1n1pHUthxInLevBbwaHJ-232" value="- effects: List&amp;lt;AudioClip&amp;gt;" style="text;strokeColor=none;fillColor=none;align=left;verticalAlign=top;spacingLeft=4;spacingRight=4;overflow=hidden;rotatable=0;points=[[0,0.5],[1,0.5]];portConstraint=eastwest;whiteSpace=wrap;html=1;" vertex="1" parent="1n1pHUthxInLevBbwaHJ-230">
          <mxGeometry y="50" width="200" height="24" as="geometry" />
        </mxCell>
        <mxCell id="1n1pHUthxInLevBbwaHJ-233" value="- time: float" style="text;strokeColor=none;fillColor=none;align=left;verticalAlign=top;spacingLeft=4;spacingRight=4;overflow=hidden;rotatable=0;points=[[0,0.5],[1,0.5]];portConstraint=eastwest;whiteSpace=wrap;html=1;" vertex="1" parent="1n1pHUthxInLevBbwaHJ-230">
          <mxGeometry y="74" width="200" height="24" as="geometry" />
        </mxCell>
        <mxCell id="1n1pHUthxInLevBbwaHJ-234" value="" style="line;strokeWidth=1;fillColor=none;align=left;verticalAlign=middle;spacingTop=-1;spacingLeft=3;spacingRight=3;rotatable=0;labelPosition=right;points=[];portConstraint=eastwest;strokeColor=inherit;" vertex="1" parent="1n1pHUthxInLevBbwaHJ-230">
          <mxGeometry y="98" width="200" height="8" as="geometry" />
        </mxCell>
        <mxCell id="1n1pHUthxInLevBbwaHJ-235" value="+ PlayMusic(): void" style="text;strokeColor=none;fillColor=none;align=left;verticalAlign=top;spacingLeft=4;spacingRight=4;overflow=hidden;rotatable=0;points=[[0,0.5],[1,0.5]];portConstraint=eastwest;whiteSpace=wrap;html=1;" vertex="1" parent="1n1pHUthxInLevBbwaHJ-230">
          <mxGeometry y="106" width="200" height="22" as="geometry" />
        </mxCell>
        <mxCell id="1n1pHUthxInLevBbwaHJ-236" value="+ StopMusic(): void" style="text;strokeColor=none;fillColor=none;align=left;verticalAlign=top;spacingLeft=4;spacingRight=4;overflow=hidden;rotatable=0;points=[[0,0.5],[1,0.5]];portConstraint=eastwest;whiteSpace=wrap;html=1;" vertex="1" parent="1n1pHUthxInLevBbwaHJ-230">
          <mxGeometry y="128" width="200" height="22" as="geometry" />
        </mxCell>
        <mxCell id="1n1pHUthxInLevBbwaHJ-237" value="+ PlayEffect(): void" style="text;strokeColor=none;fillColor=none;align=left;verticalAlign=top;spacingLeft=4;spacingRight=4;overflow=hidden;rotatable=0;points=[[0,0.5],[1,0.5]];portConstraint=eastwest;whiteSpace=wrap;html=1;" vertex="1" parent="1n1pHUthxInLevBbwaHJ-230">
          <mxGeometry y="150" width="200" height="26" as="geometry" />
        </mxCell>
        <mxCell id="1n1pHUthxInLevBbwaHJ-238" value="+ StopEffect(): void" style="text;strokeColor=none;fillColor=none;align=left;verticalAlign=top;spacingLeft=4;spacingRight=4;overflow=hidden;rotatable=0;points=[[0,0.5],[1,0.5]];portConstraint=eastwest;whiteSpace=wrap;html=1;" vertex="1" parent="1n1pHUthxInLevBbwaHJ-230">
          <mxGeometry y="176" width="200" height="26" as="geometry" />
        </mxCell>
        <mxCell id="1n1pHUthxInLevBbwaHJ-239" value="UIManager" style="swimlane;fontStyle=1;align=center;verticalAlign=top;childLayout=stackLayout;horizontal=1;startSize=26;horizontalStack=0;resizeParent=1;resizeParentMax=0;resizeLast=0;collapsible=1;marginBottom=0;whiteSpace=wrap;html=1;" vertex="1" parent="WIyWlLk6GJQsqaUBKTNV-1">
          <mxGeometry x="1000" y="-1679" width="160" height="190" as="geometry" />
        </mxCell>
        <mxCell id="1n1pHUthxInLevBbwaHJ-240" value="- miniMap: UIElement" style="text;strokeColor=none;fillColor=none;align=left;verticalAlign=top;spacingLeft=4;spacingRight=4;overflow=hidden;rotatable=0;points=[[0,0.5],[1,0.5]];portConstraint=eastwest;whiteSpace=wrap;html=1;" vertex="1" parent="1n1pHUthxInLevBbwaHJ-239">
          <mxGeometry y="26" width="160" height="26" as="geometry" />
        </mxCell>
        <mxCell id="1n1pHUthxInLevBbwaHJ-241" value="- timer: Timer" style="text;strokeColor=none;fillColor=none;align=left;verticalAlign=top;spacingLeft=4;spacingRight=4;overflow=hidden;rotatable=0;points=[[0,0.5],[1,0.5]];portConstraint=eastwest;whiteSpace=wrap;html=1;" vertex="1" parent="1n1pHUthxInLevBbwaHJ-239">
          <mxGeometry y="52" width="160" height="26" as="geometry" />
        </mxCell>
        <mxCell id="1n1pHUthxInLevBbwaHJ-242" value="- lapTracker: Text" style="text;strokeColor=none;fillColor=none;align=left;verticalAlign=top;spacingLeft=4;spacingRight=4;overflow=hidden;rotatable=0;points=[[0,0.5],[1,0.5]];portConstraint=eastwest;whiteSpace=wrap;html=1;" vertex="1" parent="1n1pHUthxInLevBbwaHJ-239">
          <mxGeometry y="78" width="160" height="26" as="geometry" />
        </mxCell>
        <mxCell id="1n1pHUthxInLevBbwaHJ-243" value="" style="line;strokeWidth=1;fillColor=none;align=left;verticalAlign=middle;spacingTop=-1;spacingLeft=3;spacingRight=3;rotatable=0;labelPosition=right;points=[];portConstraint=eastwest;strokeColor=inherit;" vertex="1" parent="1n1pHUthxInLevBbwaHJ-239">
          <mxGeometry y="104" width="160" height="8" as="geometry" />
        </mxCell>
        <mxCell id="1n1pHUthxInLevBbwaHJ-244" value="+ UpdateLapTracker(): void" style="text;strokeColor=none;fillColor=none;align=left;verticalAlign=top;spacingLeft=4;spacingRight=4;overflow=hidden;rotatable=0;points=[[0,0.5],[1,0.5]];portConstraint=eastwest;whiteSpace=wrap;html=1;" vertex="1" parent="1n1pHUthxInLevBbwaHJ-239">
          <mxGeometry y="112" width="160" height="26" as="geometry" />
        </mxCell>
        <mxCell id="1n1pHUthxInLevBbwaHJ-245" value="+ UpdateMiniMap(): void" style="text;strokeColor=none;fillColor=none;align=left;verticalAlign=top;spacingLeft=4;spacingRight=4;overflow=hidden;rotatable=0;points=[[0,0.5],[1,0.5]];portConstraint=eastwest;whiteSpace=wrap;html=1;" vertex="1" parent="1n1pHUthxInLevBbwaHJ-239">
          <mxGeometry y="138" width="160" height="26" as="geometry" />
        </mxCell>
        <mxCell id="1n1pHUthxInLevBbwaHJ-246" value="+ UpdateTimer(): void" style="text;strokeColor=none;fillColor=none;align=left;verticalAlign=top;spacingLeft=4;spacingRight=4;overflow=hidden;rotatable=0;points=[[0,0.5],[1,0.5]];portConstraint=eastwest;whiteSpace=wrap;html=1;" vertex="1" parent="1n1pHUthxInLevBbwaHJ-239">
          <mxGeometry y="164" width="160" height="26" as="geometry" />
        </mxCell>
        <mxCell id="1n1pHUthxInLevBbwaHJ-247" value="Timer" style="swimlane;fontStyle=1;align=center;verticalAlign=top;childLayout=stackLayout;horizontal=1;startSize=26;horizontalStack=0;resizeParent=1;resizeParentMax=0;resizeLast=0;collapsible=1;marginBottom=0;whiteSpace=wrap;html=1;" vertex="1" parent="WIyWlLk6GJQsqaUBKTNV-1">
          <mxGeometry x="1120" y="-1359" width="160" height="112" as="geometry" />
        </mxCell>
        <mxCell id="1n1pHUthxInLevBbwaHJ-248" value="- time: Timer" style="text;strokeColor=none;fillColor=none;align=left;verticalAlign=top;spacingLeft=4;spacingRight=4;overflow=hidden;rotatable=0;points=[[0,0.5],[1,0.5]];portConstraint=eastwest;whiteSpace=wrap;html=1;" vertex="1" parent="1n1pHUthxInLevBbwaHJ-247">
          <mxGeometry y="26" width="160" height="26" as="geometry" />
        </mxCell>
        <mxCell id="1n1pHUthxInLevBbwaHJ-249" value="" style="line;strokeWidth=1;fillColor=none;align=left;verticalAlign=middle;spacingTop=-1;spacingLeft=3;spacingRight=3;rotatable=0;labelPosition=right;points=[];portConstraint=eastwest;strokeColor=inherit;" vertex="1" parent="1n1pHUthxInLevBbwaHJ-247">
          <mxGeometry y="52" width="160" height="8" as="geometry" />
        </mxCell>
        <mxCell id="1n1pHUthxInLevBbwaHJ-250" value="+ StartTimer(): void" style="text;strokeColor=none;fillColor=none;align=left;verticalAlign=top;spacingLeft=4;spacingRight=4;overflow=hidden;rotatable=0;points=[[0,0.5],[1,0.5]];portConstraint=eastwest;whiteSpace=wrap;html=1;" vertex="1" parent="1n1pHUthxInLevBbwaHJ-247">
          <mxGeometry y="60" width="160" height="26" as="geometry" />
        </mxCell>
        <mxCell id="1n1pHUthxInLevBbwaHJ-251" value="+ EndTimer(): void" style="text;strokeColor=none;fillColor=none;align=left;verticalAlign=top;spacingLeft=4;spacingRight=4;overflow=hidden;rotatable=0;points=[[0,0.5],[1,0.5]];portConstraint=eastwest;whiteSpace=wrap;html=1;" vertex="1" parent="1n1pHUthxInLevBbwaHJ-247">
          <mxGeometry y="86" width="160" height="26" as="geometry" />
        </mxCell>
        <mxCell id="1n1pHUthxInLevBbwaHJ-252" value="GameManager" style="swimlane;fontStyle=1;align=center;verticalAlign=top;childLayout=stackLayout;horizontal=1;startSize=26;horizontalStack=0;resizeParent=1;resizeParentMax=0;resizeLast=0;collapsible=1;marginBottom=0;whiteSpace=wrap;html=1;" vertex="1" parent="WIyWlLk6GJQsqaUBKTNV-1">
          <mxGeometry x="-639" y="-2040" width="160" height="112" as="geometry" />
        </mxCell>
        <mxCell id="1n1pHUthxInLevBbwaHJ-253" value="- gameStarted: bool" style="text;strokeColor=none;fillColor=none;align=left;verticalAlign=top;spacingLeft=4;spacingRight=4;overflow=hidden;rotatable=0;points=[[0,0.5],[1,0.5]];portConstraint=eastwest;whiteSpace=wrap;html=1;" vertex="1" parent="1n1pHUthxInLevBbwaHJ-252">
          <mxGeometry y="26" width="160" height="26" as="geometry" />
        </mxCell>
        <mxCell id="1n1pHUthxInLevBbwaHJ-254" value="- gameEnded: bool" style="text;strokeColor=none;fillColor=none;align=left;verticalAlign=top;spacingLeft=4;spacingRight=4;overflow=hidden;rotatable=0;points=[[0,0.5],[1,0.5]];portConstraint=eastwest;whiteSpace=wrap;html=1;" vertex="1" parent="1n1pHUthxInLevBbwaHJ-252">
          <mxGeometry y="52" width="160" height="26" as="geometry" />
        </mxCell>
        <mxCell id="1n1pHUthxInLevBbwaHJ-255" value="" style="line;strokeWidth=1;fillColor=none;align=left;verticalAlign=middle;spacingTop=-1;spacingLeft=3;spacingRight=3;rotatable=0;labelPosition=right;points=[];portConstraint=eastwest;strokeColor=inherit;" vertex="1" parent="1n1pHUthxInLevBbwaHJ-252">
          <mxGeometry y="78" width="160" height="8" as="geometry" />
        </mxCell>
        <mxCell id="1n1pHUthxInLevBbwaHJ-256" value="+ GameControl(): void" style="text;strokeColor=none;fillColor=none;align=left;verticalAlign=top;spacingLeft=4;spacingRight=4;overflow=hidden;rotatable=0;points=[[0,0.5],[1,0.5]];portConstraint=eastwest;whiteSpace=wrap;html=1;" vertex="1" parent="1n1pHUthxInLevBbwaHJ-252">
          <mxGeometry y="86" width="160" height="26" as="geometry" />
        </mxCell>
        <mxCell id="1n1pHUthxInLevBbwaHJ-257" value="GameMenu" style="swimlane;fontStyle=1;align=center;verticalAlign=top;childLayout=stackLayout;horizontal=1;startSize=26;horizontalStack=0;resizeParent=1;resizeParentMax=0;resizeLast=0;collapsible=1;marginBottom=0;whiteSpace=wrap;html=1;" vertex="1" parent="WIyWlLk6GJQsqaUBKTNV-1">
          <mxGeometry x="-960" y="-1320" width="200" height="112" as="geometry" />
        </mxCell>
        <mxCell id="1n1pHUthxInLevBbwaHJ-258" value="&amp;nbsp;" style="text;strokeColor=none;fillColor=none;align=left;verticalAlign=top;spacingLeft=4;spacingRight=4;overflow=hidden;rotatable=0;points=[[0,0.5],[1,0.5]];portConstraint=eastwest;whiteSpace=wrap;html=1;" vertex="1" parent="1n1pHUthxInLevBbwaHJ-257">
          <mxGeometry y="26" width="200" height="26" as="geometry" />
        </mxCell>
        <mxCell id="1n1pHUthxInLevBbwaHJ-259" value="" style="line;strokeWidth=1;fillColor=none;align=left;verticalAlign=middle;spacingTop=-1;spacingLeft=3;spacingRight=3;rotatable=0;labelPosition=right;points=[];portConstraint=eastwest;strokeColor=inherit;" vertex="1" parent="1n1pHUthxInLevBbwaHJ-257">
          <mxGeometry y="52" width="200" height="8" as="geometry" />
        </mxCell>
        <mxCell id="1n1pHUthxInLevBbwaHJ-260" value="+ DisplayGameMenu(): void" style="text;strokeColor=none;fillColor=none;align=left;verticalAlign=top;spacingLeft=4;spacingRight=4;overflow=hidden;rotatable=0;points=[[0,0.5],[1,0.5]];portConstraint=eastwest;whiteSpace=wrap;html=1;" vertex="1" parent="1n1pHUthxInLevBbwaHJ-257">
          <mxGeometry y="60" width="200" height="26" as="geometry" />
        </mxCell>
        <mxCell id="1n1pHUthxInLevBbwaHJ-261" value="+ StartRace(): void" style="text;strokeColor=none;fillColor=none;align=left;verticalAlign=top;spacingLeft=4;spacingRight=4;overflow=hidden;rotatable=0;points=[[0,0.5],[1,0.5]];portConstraint=eastwest;whiteSpace=wrap;html=1;" vertex="1" parent="1n1pHUthxInLevBbwaHJ-257">
          <mxGeometry y="86" width="200" height="26" as="geometry" />
        </mxCell>
        <mxCell id="1n1pHUthxInLevBbwaHJ-262" value="SelectionMenu" style="swimlane;fontStyle=1;align=center;verticalAlign=top;childLayout=stackLayout;horizontal=1;startSize=26;horizontalStack=0;resizeParent=1;resizeParentMax=0;resizeLast=0;collapsible=1;marginBottom=0;whiteSpace=wrap;html=1;" vertex="1" parent="WIyWlLk6GJQsqaUBKTNV-1">
          <mxGeometry x="-1200" y="-1319" width="200" height="60" as="geometry" />
        </mxCell>
        <mxCell id="1n1pHUthxInLevBbwaHJ-263" value="" style="line;strokeWidth=1;fillColor=none;align=left;verticalAlign=middle;spacingTop=-1;spacingLeft=3;spacingRight=3;rotatable=0;labelPosition=right;points=[];portConstraint=eastwest;strokeColor=inherit;" vertex="1" parent="1n1pHUthxInLevBbwaHJ-262">
          <mxGeometry y="26" width="200" height="8" as="geometry" />
        </mxCell>
        <mxCell id="1n1pHUthxInLevBbwaHJ-264" value="+ DisplaySelectionMenu():void" style="text;strokeColor=none;fillColor=none;align=left;verticalAlign=top;spacingLeft=4;spacingRight=4;overflow=hidden;rotatable=0;points=[[0,0.5],[1,0.5]];portConstraint=eastwest;whiteSpace=wrap;html=1;" vertex="1" parent="1n1pHUthxInLevBbwaHJ-262">
          <mxGeometry y="34" width="200" height="26" as="geometry" />
        </mxCell>
        <mxCell id="1n1pHUthxInLevBbwaHJ-265" value="" style="endArrow=diamondThin;endFill=1;endSize=24;html=1;rounded=0;exitX=0.5;exitY=1.017;exitDx=0;exitDy=0;exitPerimeter=0;entryX=0.5;entryY=0;entryDx=0;entryDy=0;" edge="1" parent="WIyWlLk6GJQsqaUBKTNV-1" source="1n1pHUthxInLevBbwaHJ-221" target="1n1pHUthxInLevBbwaHJ-262">
          <mxGeometry width="160" relative="1" as="geometry">
            <mxPoint x="-1098.1999999999994" y="-1420.518" as="sourcePoint" />
            <mxPoint x="-860" y="-1480" as="targetPoint" />
          </mxGeometry>
        </mxCell>
        <mxCell id="1n1pHUthxInLevBbwaHJ-266" value="" style="endArrow=diamondThin;endFill=1;endSize=24;html=1;rounded=0;entryX=0.5;entryY=0;entryDx=0;entryDy=0;exitX=0.501;exitY=1.045;exitDx=0;exitDy=0;exitPerimeter=0;" edge="1" parent="WIyWlLk6GJQsqaUBKTNV-1" source="1n1pHUthxInLevBbwaHJ-221" target="1n1pHUthxInLevBbwaHJ-257">
          <mxGeometry width="160" relative="1" as="geometry">
            <mxPoint x="-1120" y="-1420" as="sourcePoint" />
            <mxPoint x="-1090" y="-1309" as="targetPoint" />
            <Array as="points">
              <mxPoint x="-1100" y="-1380" />
              <mxPoint x="-860" y="-1380" />
            </Array>
          </mxGeometry>
        </mxCell>
        <mxCell id="1n1pHUthxInLevBbwaHJ-267" value="SelectionScene" style="swimlane;fontStyle=1;align=center;verticalAlign=top;childLayout=stackLayout;horizontal=1;startSize=26;horizontalStack=0;resizeParent=1;resizeParentMax=0;resizeLast=0;collapsible=1;marginBottom=0;whiteSpace=wrap;html=1;" vertex="1" parent="WIyWlLk6GJQsqaUBKTNV-1">
          <mxGeometry x="-150" y="-1320" width="260" height="216" as="geometry" />
        </mxCell>
        <mxCell id="1n1pHUthxInLevBbwaHJ-268" value="+ backToMainMenu: Button" style="text;strokeColor=none;fillColor=none;align=left;verticalAlign=top;spacingLeft=4;spacingRight=4;overflow=hidden;rotatable=0;points=[[0,0.5],[1,0.5]];portConstraint=eastwest;whiteSpace=wrap;html=1;" vertex="1" parent="1n1pHUthxInLevBbwaHJ-267">
          <mxGeometry y="26" width="260" height="26" as="geometry" />
        </mxCell>
        <mxCell id="1n1pHUthxInLevBbwaHJ-269" value="- availableCharacters: List&amp;lt;Characters&amp;gt;" style="text;strokeColor=none;fillColor=none;align=left;verticalAlign=top;spacingLeft=4;spacingRight=4;overflow=hidden;rotatable=0;points=[[0,0.5],[1,0.5]];portConstraint=eastwest;whiteSpace=wrap;html=1;" vertex="1" parent="1n1pHUthxInLevBbwaHJ-267">
          <mxGeometry y="52" width="260" height="26" as="geometry" />
        </mxCell>
        <mxCell id="1n1pHUthxInLevBbwaHJ-270" value="- availableVehicles: List&amp;lt;Vehicles&amp;gt;" style="text;strokeColor=none;fillColor=none;align=left;verticalAlign=top;spacingLeft=4;spacingRight=4;overflow=hidden;rotatable=0;points=[[0,0.5],[1,0.5]];portConstraint=eastwest;whiteSpace=wrap;html=1;" vertex="1" parent="1n1pHUthxInLevBbwaHJ-267">
          <mxGeometry y="78" width="260" height="26" as="geometry" />
        </mxCell>
        <mxCell id="1n1pHUthxInLevBbwaHJ-271" value="- availableMaps: List&amp;lt;Maps&amp;gt;" style="text;strokeColor=none;fillColor=none;align=left;verticalAlign=top;spacingLeft=4;spacingRight=4;overflow=hidden;rotatable=0;points=[[0,0.5],[1,0.5]];portConstraint=eastwest;whiteSpace=wrap;html=1;" vertex="1" parent="1n1pHUthxInLevBbwaHJ-267">
          <mxGeometry y="104" width="260" height="26" as="geometry" />
        </mxCell>
        <mxCell id="1n1pHUthxInLevBbwaHJ-272" value="" style="line;strokeWidth=1;fillColor=none;align=left;verticalAlign=middle;spacingTop=-1;spacingLeft=3;spacingRight=3;rotatable=0;labelPosition=right;points=[];portConstraint=eastwest;strokeColor=inherit;" vertex="1" parent="1n1pHUthxInLevBbwaHJ-267">
          <mxGeometry y="130" width="260" height="8" as="geometry" />
        </mxCell>
        <mxCell id="1n1pHUthxInLevBbwaHJ-273" value="+ LoadCharacterSelectionScene(): void" style="text;strokeColor=none;fillColor=none;align=left;verticalAlign=top;spacingLeft=4;spacingRight=4;overflow=hidden;rotatable=0;points=[[0,0.5],[1,0.5]];portConstraint=eastwest;whiteSpace=wrap;html=1;" vertex="1" parent="1n1pHUthxInLevBbwaHJ-267">
          <mxGeometry y="138" width="260" height="26" as="geometry" />
        </mxCell>
        <mxCell id="1n1pHUthxInLevBbwaHJ-274" value="+ LoadVehicleSelectionScene(): void" style="text;strokeColor=none;fillColor=none;align=left;verticalAlign=top;spacingLeft=4;spacingRight=4;overflow=hidden;rotatable=0;points=[[0,0.5],[1,0.5]];portConstraint=eastwest;whiteSpace=wrap;html=1;" vertex="1" parent="1n1pHUthxInLevBbwaHJ-267">
          <mxGeometry y="164" width="260" height="26" as="geometry" />
        </mxCell>
        <mxCell id="1n1pHUthxInLevBbwaHJ-275" value="+ LoadMapSelectionScene(): void" style="text;strokeColor=none;fillColor=none;align=left;verticalAlign=top;spacingLeft=4;spacingRight=4;overflow=hidden;rotatable=0;points=[[0,0.5],[1,0.5]];portConstraint=eastwest;whiteSpace=wrap;html=1;" vertex="1" parent="1n1pHUthxInLevBbwaHJ-267">
          <mxGeometry y="190" width="260" height="26" as="geometry" />
        </mxCell>
        <mxCell id="1n1pHUthxInLevBbwaHJ-276" value="" style="endArrow=diamondThin;endFill=1;endSize=24;html=1;rounded=0;entryX=0.5;entryY=0;entryDx=0;entryDy=0;exitX=0.497;exitY=0.986;exitDx=0;exitDy=0;exitPerimeter=0;" edge="1" parent="WIyWlLk6GJQsqaUBKTNV-1" source="1n1pHUthxInLevBbwaHJ-117" target="1n1pHUthxInLevBbwaHJ-267">
          <mxGeometry width="160" relative="1" as="geometry">
            <mxPoint x="250" y="-1440" as="sourcePoint" />
            <mxPoint x="310" y="-1320" as="targetPoint" />
            <Array as="points">
              <mxPoint x="283" y="-1400" />
              <mxPoint x="-20" y="-1400" />
            </Array>
          </mxGeometry>
        </mxCell>
        <mxCell id="1n1pHUthxInLevBbwaHJ-277" value="" style="endArrow=diamondThin;endFill=1;endSize=24;html=1;rounded=0;exitX=0.496;exitY=0.92;exitDx=0;exitDy=0;exitPerimeter=0;entryX=0.5;entryY=0;entryDx=0;entryDy=0;" edge="1" parent="WIyWlLk6GJQsqaUBKTNV-1" source="1n1pHUthxInLevBbwaHJ-117" target="1n1pHUthxInLevBbwaHJ-136">
          <mxGeometry width="160" relative="1" as="geometry">
            <mxPoint x="180" y="-1390" as="sourcePoint" />
            <mxPoint x="340" y="-1390" as="targetPoint" />
          </mxGeometry>
        </mxCell>
        <mxCell id="1n1pHUthxInLevBbwaHJ-278" value="1" style="text;html=1;align=center;verticalAlign=middle;resizable=0;points=[];autosize=1;strokeColor=none;fillColor=none;" vertex="1" parent="WIyWlLk6GJQsqaUBKTNV-1">
          <mxGeometry x="-1700" y="-1680" width="30" height="30" as="geometry" />
        </mxCell>
        <mxCell id="1n1pHUthxInLevBbwaHJ-279" value="1" style="text;html=1;align=center;verticalAlign=middle;resizable=0;points=[];autosize=1;strokeColor=none;fillColor=none;" vertex="1" parent="WIyWlLk6GJQsqaUBKTNV-1">
          <mxGeometry x="-1720" y="-1450" width="30" height="30" as="geometry" />
        </mxCell>
        <mxCell id="1n1pHUthxInLevBbwaHJ-280" value="1" style="text;html=1;align=center;verticalAlign=middle;resizable=0;points=[];autosize=1;strokeColor=none;fillColor=none;" vertex="1" parent="WIyWlLk6GJQsqaUBKTNV-1">
          <mxGeometry x="-1570" y="-1359" width="30" height="30" as="geometry" />
        </mxCell>
        <mxCell id="1n1pHUthxInLevBbwaHJ-281" value="1" style="text;html=1;align=center;verticalAlign=middle;resizable=0;points=[];autosize=1;strokeColor=none;fillColor=none;" vertex="1" parent="WIyWlLk6GJQsqaUBKTNV-1">
          <mxGeometry x="-1840" y="-1350" width="30" height="30" as="geometry" />
        </mxCell>
        <mxCell id="1n1pHUthxInLevBbwaHJ-282" value="1" style="text;html=1;align=center;verticalAlign=middle;resizable=0;points=[];autosize=1;strokeColor=none;fillColor=none;" vertex="1" parent="WIyWlLk6GJQsqaUBKTNV-1">
          <mxGeometry x="-1330" y="-1359" width="30" height="30" as="geometry" />
        </mxCell>
        <mxCell id="1n1pHUthxInLevBbwaHJ-283" value="1" style="text;html=1;align=center;verticalAlign=middle;resizable=0;points=[];autosize=1;strokeColor=none;fillColor=none;" vertex="1" parent="WIyWlLk6GJQsqaUBKTNV-1">
          <mxGeometry x="-1090" y="-1349" width="30" height="30" as="geometry" />
        </mxCell>
        <mxCell id="1n1pHUthxInLevBbwaHJ-284" value="1" style="text;html=1;align=center;verticalAlign=middle;resizable=0;points=[];autosize=1;strokeColor=none;fillColor=none;" vertex="1" parent="WIyWlLk6GJQsqaUBKTNV-1">
          <mxGeometry x="-850" y="-1359" width="30" height="30" as="geometry" />
        </mxCell>
        <mxCell id="1n1pHUthxInLevBbwaHJ-285" value="1" style="text;html=1;align=center;verticalAlign=middle;resizable=0;points=[];autosize=1;strokeColor=none;fillColor=none;" vertex="1" parent="WIyWlLk6GJQsqaUBKTNV-1">
          <mxGeometry x="-1090" y="-1519" width="30" height="30" as="geometry" />
        </mxCell>
        <mxCell id="1n1pHUthxInLevBbwaHJ-286" value="1" style="text;html=1;align=center;verticalAlign=middle;resizable=0;points=[];autosize=1;strokeColor=none;fillColor=none;" vertex="1" parent="WIyWlLk6GJQsqaUBKTNV-1">
          <mxGeometry x="-550" y="-1350" width="30" height="30" as="geometry" />
        </mxCell>
        <mxCell id="1n1pHUthxInLevBbwaHJ-287" value="1" style="text;html=1;align=center;verticalAlign=middle;resizable=0;points=[];autosize=1;strokeColor=none;fillColor=none;" vertex="1" parent="WIyWlLk6GJQsqaUBKTNV-1">
          <mxGeometry x="-560" y="-1438" width="30" height="30" as="geometry" />
        </mxCell>
        <mxCell id="1n1pHUthxInLevBbwaHJ-288" value="1" style="text;html=1;align=center;verticalAlign=middle;resizable=0;points=[];autosize=1;strokeColor=none;fillColor=none;" vertex="1" parent="WIyWlLk6GJQsqaUBKTNV-1">
          <mxGeometry x="-10" y="-1359" width="30" height="30" as="geometry" />
        </mxCell>
        <mxCell id="1n1pHUthxInLevBbwaHJ-289" value="1" style="text;html=1;align=center;verticalAlign=middle;resizable=0;points=[];autosize=1;strokeColor=none;fillColor=none;" vertex="1" parent="WIyWlLk6GJQsqaUBKTNV-1">
          <mxGeometry x="290" y="-1359" width="30" height="30" as="geometry" />
        </mxCell>
        <mxCell id="1n1pHUthxInLevBbwaHJ-290" value="1" style="text;html=1;align=center;verticalAlign=middle;resizable=0;points=[];autosize=1;strokeColor=none;fillColor=none;" vertex="1" parent="WIyWlLk6GJQsqaUBKTNV-1">
          <mxGeometry x="570" y="-1359" width="30" height="30" as="geometry" />
        </mxCell>
        <mxCell id="1n1pHUthxInLevBbwaHJ-291" value="1" style="text;html=1;align=center;verticalAlign=middle;resizable=0;points=[];autosize=1;strokeColor=none;fillColor=none;" vertex="1" parent="WIyWlLk6GJQsqaUBKTNV-1">
          <mxGeometry x="296" y="-1438" width="30" height="30" as="geometry" />
        </mxCell>
        <mxCell id="1n1pHUthxInLevBbwaHJ-292" value="1" style="text;html=1;align=center;verticalAlign=middle;resizable=0;points=[];autosize=1;strokeColor=none;fillColor=none;" vertex="1" parent="WIyWlLk6GJQsqaUBKTNV-1">
          <mxGeometry x="970" y="-1389" width="30" height="30" as="geometry" />
        </mxCell>
        <mxCell id="1n1pHUthxInLevBbwaHJ-293" value="1" style="text;html=1;align=center;verticalAlign=middle;resizable=0;points=[];autosize=1;strokeColor=none;fillColor=none;" vertex="1" parent="WIyWlLk6GJQsqaUBKTNV-1">
          <mxGeometry x="1090" y="-1480" width="30" height="30" as="geometry" />
        </mxCell>
        <mxCell id="1n1pHUthxInLevBbwaHJ-294" value="1" style="text;html=1;align=center;verticalAlign=middle;resizable=0;points=[];autosize=1;strokeColor=none;fillColor=none;" vertex="1" parent="WIyWlLk6GJQsqaUBKTNV-1">
          <mxGeometry x="1211" y="-1389" width="30" height="30" as="geometry" />
        </mxCell>
        <mxCell id="1n1pHUthxInLevBbwaHJ-295" value="1" style="text;html=1;align=center;verticalAlign=middle;resizable=0;points=[];autosize=1;strokeColor=none;fillColor=none;" vertex="1" parent="WIyWlLk6GJQsqaUBKTNV-1">
          <mxGeometry x="-1090" y="-1678" width="30" height="30" as="geometry" />
        </mxCell>
        <mxCell id="1n1pHUthxInLevBbwaHJ-296" value="1" style="text;html=1;align=center;verticalAlign=middle;resizable=0;points=[];autosize=1;strokeColor=none;fillColor=none;" vertex="1" parent="WIyWlLk6GJQsqaUBKTNV-1">
          <mxGeometry x="-550" y="-1678" width="30" height="30" as="geometry" />
        </mxCell>
        <mxCell id="1n1pHUthxInLevBbwaHJ-297" value="1" style="text;html=1;align=center;verticalAlign=middle;resizable=0;points=[];autosize=1;strokeColor=none;fillColor=none;" vertex="1" parent="WIyWlLk6GJQsqaUBKTNV-1">
          <mxGeometry x="296" y="-1692" width="30" height="30" as="geometry" />
        </mxCell>
        <mxCell id="1n1pHUthxInLevBbwaHJ-298" value="1" style="text;html=1;align=center;verticalAlign=middle;resizable=0;points=[];autosize=1;strokeColor=none;fillColor=none;" vertex="1" parent="WIyWlLk6GJQsqaUBKTNV-1">
          <mxGeometry x="1090" y="-1722" width="30" height="30" as="geometry" />
        </mxCell>
        <mxCell id="1n1pHUthxInLevBbwaHJ-299" value="1" style="text;html=1;align=center;verticalAlign=middle;resizable=0;points=[];autosize=1;strokeColor=none;fillColor=none;" vertex="1" parent="WIyWlLk6GJQsqaUBKTNV-1">
          <mxGeometry x="-550" y="-1920" width="30" height="30" as="geometry" />
        </mxCell>
        <mxCell id="1n1pHUthxInLevBbwaHJ-300" value="1" style="text;html=1;align=center;verticalAlign=middle;resizable=0;points=[];autosize=1;strokeColor=none;fillColor=none;" vertex="1" parent="WIyWlLk6GJQsqaUBKTNV-1">
          <mxGeometry x="-10" y="-1100" width="30" height="30" as="geometry" />
        </mxCell>
        <mxCell id="1n1pHUthxInLevBbwaHJ-301" value="1" style="text;html=1;align=center;verticalAlign=middle;resizable=0;points=[];autosize=1;strokeColor=none;fillColor=none;" vertex="1" parent="WIyWlLk6GJQsqaUBKTNV-1">
          <mxGeometry x="-305" y="-1010" width="30" height="30" as="geometry" />
        </mxCell>
        <mxCell id="1n1pHUthxInLevBbwaHJ-302" value="1" style="text;html=1;align=center;verticalAlign=middle;resizable=0;points=[];autosize=1;strokeColor=none;fillColor=none;" vertex="1" parent="WIyWlLk6GJQsqaUBKTNV-1">
          <mxGeometry x="-10" y="-1010" width="30" height="30" as="geometry" />
        </mxCell>
        <mxCell id="1n1pHUthxInLevBbwaHJ-303" value="1" style="text;html=1;align=center;verticalAlign=middle;resizable=0;points=[];autosize=1;strokeColor=none;fillColor=none;" vertex="1" parent="WIyWlLk6GJQsqaUBKTNV-1">
          <mxGeometry x="315" y="-1010" width="30" height="30" as="geometry" />
        </mxCell>
        <mxCell id="1n1pHUthxInLevBbwaHJ-304" value="&lt;font style=&quot;font-size: 18px;&quot;&gt;GameLogic&lt;/font&gt;" style="text;html=1;align=center;verticalAlign=middle;resizable=0;points=[];autosize=1;strokeColor=none;fillColor=none;" vertex="1" parent="WIyWlLk6GJQsqaUBKTNV-1">
          <mxGeometry x="-2000" y="-2160" width="120" height="40" as="geometry" />
        </mxCell>
        <mxCell id="1n1pHUthxInLevBbwaHJ-305" value="&lt;font style=&quot;font-size: 18px;&quot;&gt;&lt;b&gt;GameLogic&lt;/b&gt;&lt;/font&gt;" style="rounded=0;whiteSpace=wrap;html=1;" vertex="1" parent="WIyWlLk6GJQsqaUBKTNV-1">
          <mxGeometry x="-2000" y="-2160" width="120" height="40" as="geometry" />
        </mxCell>
        <mxCell id="1n1pHUthxInLevBbwaHJ-306" value="&lt;font style=&quot;font-size: 18px;&quot;&gt;&lt;b&gt;PlayerLogic&lt;/b&gt;&lt;/font&gt;" style="rounded=0;whiteSpace=wrap;html=1;" vertex="1" parent="WIyWlLk6GJQsqaUBKTNV-1">
          <mxGeometry x="1120" y="-840" width="120" height="40" as="geometry" />
        </mxCell>
        <mxCell id="1n1pHUthxInLevBbwaHJ-307" value="&lt;font style=&quot;font-size: 18px;&quot;&gt;&lt;b&gt;ObstaclesLogic&lt;/b&gt;&lt;/font&gt;" style="rounded=0;whiteSpace=wrap;html=1;" vertex="1" parent="WIyWlLk6GJQsqaUBKTNV-1">
          <mxGeometry x="-1350" y="-710" width="180" height="40" as="geometry" />
        </mxCell>
        <mxCell id="1n1pHUthxInLevBbwaHJ-309" value="&lt;p style=&quot;margin:0px;margin-top:4px;text-align:center;&quot;&gt;&lt;i&gt;&amp;lt;&amp;lt;Interface&amp;gt;&amp;gt;&lt;/i&gt;&lt;br&gt;&lt;b&gt;IObstacle&lt;/b&gt;&lt;/p&gt;&lt;hr size=&quot;1&quot; style=&quot;border-style:solid;&quot;&gt;&lt;p style=&quot;margin:0px;margin-left:4px;&quot;&gt;&lt;br&gt;&lt;/p&gt;&lt;hr size=&quot;1&quot; style=&quot;border-style:solid;&quot;&gt;&lt;p style=&quot;margin:0px;margin-left:4px;&quot;&gt;+ OnTriggerEnter(Collider other): void&lt;/p&gt;" style="verticalAlign=top;align=left;overflow=fill;html=1;whiteSpace=wrap;" vertex="1" parent="WIyWlLk6GJQsqaUBKTNV-1">
          <mxGeometry x="-830" y="-440" width="240" height="110" as="geometry" />
        </mxCell>
        <mxCell id="1n1pHUthxInLevBbwaHJ-310" value="" style="endArrow=block;dashed=1;endFill=0;endSize=12;html=1;rounded=0;exitX=0.45;exitY=0.005;exitDx=0;exitDy=0;exitPerimeter=0;entryX=0.5;entryY=1;entryDx=0;entryDy=0;" edge="1" parent="WIyWlLk6GJQsqaUBKTNV-1" source="1n1pHUthxInLevBbwaHJ-17" target="1n1pHUthxInLevBbwaHJ-309">
          <mxGeometry width="160" relative="1" as="geometry">
            <mxPoint x="-760" y="-270" as="sourcePoint" />
            <mxPoint x="-600" y="-270" as="targetPoint" />
            <Array as="points">
              <mxPoint x="-960" y="-230" />
              <mxPoint x="-710" y="-230" />
            </Array>
          </mxGeometry>
        </mxCell>
        <mxCell id="1n1pHUthxInLevBbwaHJ-311" value="" style="endArrow=block;dashed=1;endFill=0;endSize=12;html=1;rounded=0;exitX=0.5;exitY=0;exitDx=0;exitDy=0;entryX=0.5;entryY=1;entryDx=0;entryDy=0;" edge="1" parent="WIyWlLk6GJQsqaUBKTNV-1" source="1n1pHUthxInLevBbwaHJ-29" target="1n1pHUthxInLevBbwaHJ-309">
          <mxGeometry width="160" relative="1" as="geometry">
            <mxPoint x="-1229" y="-151" as="sourcePoint" />
            <mxPoint x="-700" y="-320" as="targetPoint" />
            <Array as="points">
              <mxPoint x="-443" y="-230" />
              <mxPoint x="-710" y="-230" />
            </Array>
          </mxGeometry>
        </mxCell>
        <mxCell id="1n1pHUthxInLevBbwaHJ-313" value="" style="endArrow=block;dashed=1;endFill=0;endSize=12;html=1;rounded=0;exitX=0.5;exitY=0;exitDx=0;exitDy=0;entryX=0.5;entryY=1;entryDx=0;entryDy=0;" edge="1" parent="WIyWlLk6GJQsqaUBKTNV-1" source="1n1pHUthxInLevBbwaHJ-66" target="1n1pHUthxInLevBbwaHJ-309">
          <mxGeometry width="160" relative="1" as="geometry">
            <mxPoint x="-760" y="-270" as="sourcePoint" />
            <mxPoint x="-600" y="-270" as="targetPoint" />
          </mxGeometry>
        </mxCell>
        <mxCell id="1n1pHUthxInLevBbwaHJ-339" value="Path" style="swimlane;fontStyle=1;align=center;verticalAlign=top;childLayout=stackLayout;horizontal=1;startSize=26;horizontalStack=0;resizeParent=1;resizeParentMax=0;resizeLast=0;collapsible=1;marginBottom=0;whiteSpace=wrap;html=1;" vertex="1" parent="WIyWlLk6GJQsqaUBKTNV-1">
          <mxGeometry x="830" y="-36.000000000000114" width="270" height="106" as="geometry" />
        </mxCell>
        <mxCell id="1n1pHUthxInLevBbwaHJ-340" value="+ lineColor: Color" style="text;strokeColor=none;fillColor=none;align=left;verticalAlign=top;spacingLeft=4;spacingRight=4;overflow=hidden;rotatable=0;points=[[0,0.5],[1,0.5]];portConstraint=eastwest;whiteSpace=wrap;html=1;" vertex="1" parent="1n1pHUthxInLevBbwaHJ-339">
          <mxGeometry y="26" width="270" height="26" as="geometry" />
        </mxCell>
        <mxCell id="1n1pHUthxInLevBbwaHJ-342" value="- nodes: List&amp;lt;Transform&amp;gt;" style="text;strokeColor=none;fillColor=none;align=left;verticalAlign=top;spacingLeft=4;spacingRight=4;overflow=hidden;rotatable=0;points=[[0,0.5],[1,0.5]];portConstraint=eastwest;whiteSpace=wrap;html=1;" vertex="1" parent="1n1pHUthxInLevBbwaHJ-339">
          <mxGeometry y="52" width="270" height="24" as="geometry" />
        </mxCell>
        <mxCell id="1n1pHUthxInLevBbwaHJ-343" value="" style="line;strokeWidth=1;fillColor=none;align=left;verticalAlign=middle;spacingTop=-1;spacingLeft=3;spacingRight=3;rotatable=0;labelPosition=right;points=[];portConstraint=eastwest;strokeColor=inherit;" vertex="1" parent="1n1pHUthxInLevBbwaHJ-339">
          <mxGeometry y="76" width="270" height="8" as="geometry" />
        </mxCell>
        <mxCell id="1n1pHUthxInLevBbwaHJ-344" value="- OnDrawGizmosSelected(): void" style="text;strokeColor=none;fillColor=none;align=left;verticalAlign=top;spacingLeft=4;spacingRight=4;overflow=hidden;rotatable=0;points=[[0,0.5],[1,0.5]];portConstraint=eastwest;whiteSpace=wrap;html=1;" vertex="1" parent="1n1pHUthxInLevBbwaHJ-339">
          <mxGeometry y="84" width="270" height="22" as="geometry" />
        </mxCell>
        <mxCell id="1n1pHUthxInLevBbwaHJ-345" value="CarWheel" style="swimlane;fontStyle=1;align=center;verticalAlign=top;childLayout=stackLayout;horizontal=1;startSize=26;horizontalStack=0;resizeParent=1;resizeParentMax=0;resizeLast=0;collapsible=1;marginBottom=0;whiteSpace=wrap;html=1;" vertex="1" parent="WIyWlLk6GJQsqaUBKTNV-1">
          <mxGeometry x="545" y="-36.000000000000114" width="270" height="130" as="geometry" />
        </mxCell>
        <mxCell id="1n1pHUthxInLevBbwaHJ-346" value="+ target: WheelCollider" style="text;strokeColor=none;fillColor=none;align=left;verticalAlign=top;spacingLeft=4;spacingRight=4;overflow=hidden;rotatable=0;points=[[0,0.5],[1,0.5]];portConstraint=eastwest;whiteSpace=wrap;html=1;" vertex="1" parent="1n1pHUthxInLevBbwaHJ-345">
          <mxGeometry y="26" width="270" height="26" as="geometry" />
        </mxCell>
        <mxCell id="1n1pHUthxInLevBbwaHJ-347" value="- wheelPos: Vector3" style="text;strokeColor=none;fillColor=none;align=left;verticalAlign=top;spacingLeft=4;spacingRight=4;overflow=hidden;rotatable=0;points=[[0,0.5],[1,0.5]];portConstraint=eastwest;whiteSpace=wrap;html=1;" vertex="1" parent="1n1pHUthxInLevBbwaHJ-345">
          <mxGeometry y="52" width="270" height="24" as="geometry" />
        </mxCell>
        <mxCell id="1n1pHUthxInLevBbwaHJ-348" value="- wheelRotation: Quaternion" style="text;strokeColor=none;fillColor=none;align=left;verticalAlign=top;spacingLeft=4;spacingRight=4;overflow=hidden;rotatable=0;points=[[0,0.5],[1,0.5]];portConstraint=eastwest;whiteSpace=wrap;html=1;" vertex="1" parent="1n1pHUthxInLevBbwaHJ-345">
          <mxGeometry y="76" width="270" height="24" as="geometry" />
        </mxCell>
        <mxCell id="1n1pHUthxInLevBbwaHJ-349" value="" style="line;strokeWidth=1;fillColor=none;align=left;verticalAlign=middle;spacingTop=-1;spacingLeft=3;spacingRight=3;rotatable=0;labelPosition=right;points=[];portConstraint=eastwest;strokeColor=inherit;" vertex="1" parent="1n1pHUthxInLevBbwaHJ-345">
          <mxGeometry y="100" width="270" height="8" as="geometry" />
        </mxCell>
        <mxCell id="1n1pHUthxInLevBbwaHJ-350" value="- Update(): void" style="text;strokeColor=none;fillColor=none;align=left;verticalAlign=top;spacingLeft=4;spacingRight=4;overflow=hidden;rotatable=0;points=[[0,0.5],[1,0.5]];portConstraint=eastwest;whiteSpace=wrap;html=1;" vertex="1" parent="1n1pHUthxInLevBbwaHJ-345">
          <mxGeometry y="108" width="270" height="22" as="geometry" />
        </mxCell>
        <mxCell id="1n1pHUthxInLevBbwaHJ-351" value="CarEngine" style="swimlane;fontStyle=1;align=center;verticalAlign=top;childLayout=stackLayout;horizontal=1;startSize=26;horizontalStack=0;resizeParent=1;resizeParentMax=0;resizeLast=0;collapsible=1;marginBottom=0;whiteSpace=wrap;html=1;" vertex="1" parent="WIyWlLk6GJQsqaUBKTNV-1">
          <mxGeometry x="700" y="-654" width="270" height="478" as="geometry" />
        </mxCell>
        <mxCell id="1n1pHUthxInLevBbwaHJ-352" value="+ path: Transform" style="text;strokeColor=none;fillColor=none;align=left;verticalAlign=top;spacingLeft=4;spacingRight=4;overflow=hidden;rotatable=0;points=[[0,0.5],[1,0.5]];portConstraint=eastwest;whiteSpace=wrap;html=1;" vertex="1" parent="1n1pHUthxInLevBbwaHJ-351">
          <mxGeometry y="26" width="270" height="26" as="geometry" />
        </mxCell>
        <mxCell id="1n1pHUthxInLevBbwaHJ-353" value="- nodes: List&amp;lt;Transform&amp;gt;" style="text;strokeColor=none;fillColor=none;align=left;verticalAlign=top;spacingLeft=4;spacingRight=4;overflow=hidden;rotatable=0;points=[[0,0.5],[1,0.5]];portConstraint=eastwest;whiteSpace=wrap;html=1;" vertex="1" parent="1n1pHUthxInLevBbwaHJ-351">
          <mxGeometry y="52" width="270" height="24" as="geometry" />
        </mxCell>
        <mxCell id="1n1pHUthxInLevBbwaHJ-354" value="- currentNode: int" style="text;strokeColor=none;fillColor=none;align=left;verticalAlign=top;spacingLeft=4;spacingRight=4;overflow=hidden;rotatable=0;points=[[0,0.5],[1,0.5]];portConstraint=eastwest;whiteSpace=wrap;html=1;" vertex="1" parent="1n1pHUthxInLevBbwaHJ-351">
          <mxGeometry y="76" width="270" height="24" as="geometry" />
        </mxCell>
        <mxCell id="1n1pHUthxInLevBbwaHJ-357" value="+ wheelfrontLeft: WheelCollider" style="text;strokeColor=none;fillColor=none;align=left;verticalAlign=top;spacingLeft=4;spacingRight=4;overflow=hidden;rotatable=0;points=[[0,0.5],[1,0.5]];portConstraint=eastwest;whiteSpace=wrap;html=1;" vertex="1" parent="1n1pHUthxInLevBbwaHJ-351">
          <mxGeometry y="100" width="270" height="24" as="geometry" />
        </mxCell>
        <mxCell id="1n1pHUthxInLevBbwaHJ-358" value="+&amp;nbsp;wheelfrontRight: WheelCollider" style="text;strokeColor=none;fillColor=none;align=left;verticalAlign=top;spacingLeft=4;spacingRight=4;overflow=hidden;rotatable=0;points=[[0,0.5],[1,0.5]];portConstraint=eastwest;whiteSpace=wrap;html=1;" vertex="1" parent="1n1pHUthxInLevBbwaHJ-351">
          <mxGeometry y="124" width="270" height="24" as="geometry" />
        </mxCell>
        <mxCell id="1n1pHUthxInLevBbwaHJ-359" value="+&amp;nbsp;wheelrearLeft: WheelCollider" style="text;strokeColor=none;fillColor=none;align=left;verticalAlign=top;spacingLeft=4;spacingRight=4;overflow=hidden;rotatable=0;points=[[0,0.5],[1,0.5]];portConstraint=eastwest;whiteSpace=wrap;html=1;" vertex="1" parent="1n1pHUthxInLevBbwaHJ-351">
          <mxGeometry y="148" width="270" height="24" as="geometry" />
        </mxCell>
        <mxCell id="1n1pHUthxInLevBbwaHJ-360" value="+&amp;nbsp;wheelrearRight: WheelCollider" style="text;strokeColor=none;fillColor=none;align=left;verticalAlign=top;spacingLeft=4;spacingRight=4;overflow=hidden;rotatable=0;points=[[0,0.5],[1,0.5]];portConstraint=eastwest;whiteSpace=wrap;html=1;" vertex="1" parent="1n1pHUthxInLevBbwaHJ-351">
          <mxGeometry y="172" width="270" height="24" as="geometry" />
        </mxCell>
        <mxCell id="1n1pHUthxInLevBbwaHJ-361" value="+ maxSteerAngle: float" style="text;strokeColor=none;fillColor=none;align=left;verticalAlign=top;spacingLeft=4;spacingRight=4;overflow=hidden;rotatable=0;points=[[0,0.5],[1,0.5]];portConstraint=eastwest;whiteSpace=wrap;html=1;" vertex="1" parent="1n1pHUthxInLevBbwaHJ-351">
          <mxGeometry y="196" width="270" height="24" as="geometry" />
        </mxCell>
        <mxCell id="1n1pHUthxInLevBbwaHJ-362" value="+ maxMotorTorque: float" style="text;strokeColor=none;fillColor=none;align=left;verticalAlign=top;spacingLeft=4;spacingRight=4;overflow=hidden;rotatable=0;points=[[0,0.5],[1,0.5]];portConstraint=eastwest;whiteSpace=wrap;html=1;" vertex="1" parent="1n1pHUthxInLevBbwaHJ-351">
          <mxGeometry y="220" width="270" height="24" as="geometry" />
        </mxCell>
        <mxCell id="1n1pHUthxInLevBbwaHJ-363" value="+ nodeReachThreshold: float" style="text;strokeColor=none;fillColor=none;align=left;verticalAlign=top;spacingLeft=4;spacingRight=4;overflow=hidden;rotatable=0;points=[[0,0.5],[1,0.5]];portConstraint=eastwest;whiteSpace=wrap;html=1;" vertex="1" parent="1n1pHUthxInLevBbwaHJ-351">
          <mxGeometry y="244" width="270" height="24" as="geometry" />
        </mxCell>
        <mxCell id="1n1pHUthxInLevBbwaHJ-365" value="+ maxSpeed: float" style="text;strokeColor=none;fillColor=none;align=left;verticalAlign=top;spacingLeft=4;spacingRight=4;overflow=hidden;rotatable=0;points=[[0,0.5],[1,0.5]];portConstraint=eastwest;whiteSpace=wrap;html=1;" vertex="1" parent="1n1pHUthxInLevBbwaHJ-351">
          <mxGeometry y="268" width="270" height="24" as="geometry" />
        </mxCell>
        <mxCell id="1n1pHUthxInLevBbwaHJ-366" value="&amp;nbsp;- rb: Rigidbody" style="text;strokeColor=none;fillColor=none;align=left;verticalAlign=top;spacingLeft=4;spacingRight=4;overflow=hidden;rotatable=0;points=[[0,0.5],[1,0.5]];portConstraint=eastwest;whiteSpace=wrap;html=1;" vertex="1" parent="1n1pHUthxInLevBbwaHJ-351">
          <mxGeometry y="292" width="270" height="24" as="geometry" />
        </mxCell>
        <mxCell id="1n1pHUthxInLevBbwaHJ-355" value="" style="line;strokeWidth=1;fillColor=none;align=left;verticalAlign=middle;spacingTop=-1;spacingLeft=3;spacingRight=3;rotatable=0;labelPosition=right;points=[];portConstraint=eastwest;strokeColor=inherit;" vertex="1" parent="1n1pHUthxInLevBbwaHJ-351">
          <mxGeometry y="316" width="270" height="8" as="geometry" />
        </mxCell>
        <mxCell id="1n1pHUthxInLevBbwaHJ-356" value="- Start(): void" style="text;strokeColor=none;fillColor=none;align=left;verticalAlign=top;spacingLeft=4;spacingRight=4;overflow=hidden;rotatable=0;points=[[0,0.5],[1,0.5]];portConstraint=eastwest;whiteSpace=wrap;html=1;" vertex="1" parent="1n1pHUthxInLevBbwaHJ-351">
          <mxGeometry y="324" width="270" height="22" as="geometry" />
        </mxCell>
        <mxCell id="1n1pHUthxInLevBbwaHJ-368" value="- FixedUpdate(): void" style="text;strokeColor=none;fillColor=none;align=left;verticalAlign=top;spacingLeft=4;spacingRight=4;overflow=hidden;rotatable=0;points=[[0,0.5],[1,0.5]];portConstraint=eastwest;whiteSpace=wrap;html=1;" vertex="1" parent="1n1pHUthxInLevBbwaHJ-351">
          <mxGeometry y="346" width="270" height="22" as="geometry" />
        </mxCell>
        <mxCell id="1n1pHUthxInLevBbwaHJ-369" value="- ApplySteer(): void" style="text;strokeColor=none;fillColor=none;align=left;verticalAlign=top;spacingLeft=4;spacingRight=4;overflow=hidden;rotatable=0;points=[[0,0.5],[1,0.5]];portConstraint=eastwest;whiteSpace=wrap;html=1;" vertex="1" parent="1n1pHUthxInLevBbwaHJ-351">
          <mxGeometry y="368" width="270" height="22" as="geometry" />
        </mxCell>
        <mxCell id="1n1pHUthxInLevBbwaHJ-370" value="- Drive(): void" style="text;strokeColor=none;fillColor=none;align=left;verticalAlign=top;spacingLeft=4;spacingRight=4;overflow=hidden;rotatable=0;points=[[0,0.5],[1,0.5]];portConstraint=eastwest;whiteSpace=wrap;html=1;" vertex="1" parent="1n1pHUthxInLevBbwaHJ-351">
          <mxGeometry y="390" width="270" height="22" as="geometry" />
        </mxCell>
        <mxCell id="1n1pHUthxInLevBbwaHJ-371" value="- CheckNodeDistance(): void" style="text;strokeColor=none;fillColor=none;align=left;verticalAlign=top;spacingLeft=4;spacingRight=4;overflow=hidden;rotatable=0;points=[[0,0.5],[1,0.5]];portConstraint=eastwest;whiteSpace=wrap;html=1;" vertex="1" parent="1n1pHUthxInLevBbwaHJ-351">
          <mxGeometry y="412" width="270" height="22" as="geometry" />
        </mxCell>
        <mxCell id="1n1pHUthxInLevBbwaHJ-372" value="- MoveCarForward(): void" style="text;strokeColor=none;fillColor=none;align=left;verticalAlign=top;spacingLeft=4;spacingRight=4;overflow=hidden;rotatable=0;points=[[0,0.5],[1,0.5]];portConstraint=eastwest;whiteSpace=wrap;html=1;" vertex="1" parent="1n1pHUthxInLevBbwaHJ-351">
          <mxGeometry y="434" width="270" height="22" as="geometry" />
        </mxCell>
        <mxCell id="1n1pHUthxInLevBbwaHJ-373" value="- LimitSpeed(): void" style="text;strokeColor=none;fillColor=none;align=left;verticalAlign=top;spacingLeft=4;spacingRight=4;overflow=hidden;rotatable=0;points=[[0,0.5],[1,0.5]];portConstraint=eastwest;whiteSpace=wrap;html=1;" vertex="1" parent="1n1pHUthxInLevBbwaHJ-351">
          <mxGeometry y="456" width="270" height="22" as="geometry" />
        </mxCell>
        <mxCell id="1n1pHUthxInLevBbwaHJ-375" value="" style="html=1;verticalAlign=bottom;endArrow=block;curved=0;rounded=0;exitX=1.005;exitY=0.968;exitDx=0;exitDy=0;exitPerimeter=0;entryX=0;entryY=0.5;entryDx=0;entryDy=0;" edge="1" parent="WIyWlLk6GJQsqaUBKTNV-1" source="1n1pHUthxInLevBbwaHJ-323" target="1n1pHUthxInLevBbwaHJ-365">
          <mxGeometry width="80" relative="1" as="geometry">
            <mxPoint x="920" y="-356" as="sourcePoint" />
            <mxPoint x="1000" y="-356" as="targetPoint" />
          </mxGeometry>
        </mxCell>
        <mxCell id="1n1pHUthxInLevBbwaHJ-377" value="" style="html=1;verticalAlign=bottom;endArrow=block;curved=0;rounded=0;entryX=0.5;entryY=0;entryDx=0;entryDy=0;exitX=0.446;exitY=1.176;exitDx=0;exitDy=0;exitPerimeter=0;" edge="1" parent="WIyWlLk6GJQsqaUBKTNV-1" source="1n1pHUthxInLevBbwaHJ-373" target="1n1pHUthxInLevBbwaHJ-345">
          <mxGeometry width="80" relative="1" as="geometry">
            <mxPoint x="760" y="-116" as="sourcePoint" />
            <mxPoint x="625" y="-370" as="targetPoint" />
          </mxGeometry>
        </mxCell>
        <mxCell id="1n1pHUthxInLevBbwaHJ-380" value="" style="html=1;verticalAlign=bottom;endArrow=block;curved=0;rounded=0;entryX=0.5;entryY=0;entryDx=0;entryDy=0;exitX=0.449;exitY=0.989;exitDx=0;exitDy=0;exitPerimeter=0;" edge="1" parent="WIyWlLk6GJQsqaUBKTNV-1" source="1n1pHUthxInLevBbwaHJ-373" target="1n1pHUthxInLevBbwaHJ-339">
          <mxGeometry width="80" relative="1" as="geometry">
            <mxPoint x="830" y="-162" as="sourcePoint" />
            <mxPoint x="690" y="-26" as="targetPoint" />
          </mxGeometry>
        </mxCell>
        <mxCell id="1n1pHUthxInLevBbwaHJ-381" value="" style="html=1;verticalAlign=bottom;endArrow=block;curved=0;rounded=0;exitX=0;exitY=0.5;exitDx=0;exitDy=0;entryX=1;entryY=0.5;entryDx=0;entryDy=0;" edge="1" parent="WIyWlLk6GJQsqaUBKTNV-1" source="1n1pHUthxInLevBbwaHJ-321" target="1n1pHUthxInLevBbwaHJ-1">
          <mxGeometry width="80" relative="1" as="geometry">
            <mxPoint x="441" y="-365" as="sourcePoint" />
            <mxPoint x="710" y="-364" as="targetPoint" />
          </mxGeometry>
        </mxCell>
        <mxCell id="1n1pHUthxInLevBbwaHJ-382" value="" style="html=1;verticalAlign=bottom;endArrow=block;curved=0;rounded=0;exitX=0;exitY=0.5;exitDx=0;exitDy=0;entryX=1;entryY=0.5;entryDx=0;entryDy=0;" edge="1" parent="WIyWlLk6GJQsqaUBKTNV-1" source="1n1pHUthxInLevBbwaHJ-323" target="1n1pHUthxInLevBbwaHJ-309">
          <mxGeometry width="80" relative="1" as="geometry">
            <mxPoint x="150" y="-429" as="sourcePoint" />
            <mxPoint x="-200" y="-621" as="targetPoint" />
          </mxGeometry>
        </mxCell>
      </root>
    </mxGraphModel>
  </diagram>
</mxfile>
